# Blender 4.5.3 LTS
# www.blender.org
mtllib cheese.mtl
o Plane
v -0.163373 0.491451 -0.326430
v -0.500000 0.000000 1.000000
v 0.011806 0.017328 0.024012
v -0.435181 0.309440 0.459714
v -0.499678 0.508389 0.068144
v -0.044900 1.001025 0.188127
v -0.385851 0.996166 0.621195
v -0.039631 0.001507 0.883722
v -0.000355 0.952482 0.226761
v 0.500000 0.000000 1.000000
v -0.085333 0.963432 0.186548
v -0.447536 0.200067 0.479271
v -0.500000 0.000000 -1.000000
v -0.441803 0.397619 0.437247
v -0.145486 0.338800 -0.291012
v -0.500000 1.000000 -1.000000
v -0.438445 0.469645 -0.804966
v -0.192137 0.277517 -0.206296
v 0.428155 0.148706 0.856466
v -0.427544 0.152798 0.557023
v 0.025418 0.794570 0.331873
v -0.499853 0.422878 0.097842
v -0.411302 0.548934 0.489926
v 0.039521 0.102125 0.079906
v -0.310499 0.040136 0.101909
v -0.500000 1.000000 1.000000
v -0.016566 0.113164 0.952587
v -0.441803 0.520665 0.437247
v 0.500000 1.000000 1.000000
v -0.043897 0.082001 0.902778
v -0.267083 0.996351 0.638409
v -0.019506 0.960458 0.197505
v 0.121899 0.995782 0.244963
v -0.280655 0.910398 0.648519
v 0.135869 0.867058 0.275833
v -0.398318 0.997994 -0.433213
v -0.049916 0.916097 0.215103
v -0.086236 0.622867 -0.171334
v -0.438438 0.541303 0.096961
v -0.380489 0.484015 0.453251
v 0.026535 0.059454 0.940022
v -0.350447 0.301496 0.523393
v 0.035753 0.002285 0.939173
v -0.383499 0.400493 0.475109
v -0.369858 0.205151 0.527925
v -0.387599 0.477234 -0.775466
v -0.465235 0.411070 0.141365
v 0.108802 0.794041 0.387311
v -0.090697 0.285967 -0.178854
v -0.282501 0.049067 0.177245
v -0.400303 0.502889 0.143764
v -0.224551 0.995188 0.710413
v -0.396697 0.953872 -0.394700
v -0.426235 0.458677 0.093142
v -0.231550 0.917239 0.726688
v 0.189234 0.860910 0.379578
v 0.004720 0.108097 0.999713
v -0.465236 0.573371 0.156141
v -0.226458 0.002029 0.171338
v -0.367522 0.510673 0.523145
v -0.415112 0.538106 0.167355
v -0.335930 0.299085 0.589632
v 0.051396 0.017959 0.999579
v -0.415112 0.446334 0.167355
v -0.349941 0.212282 0.589632
v -0.353516 0.451854 0.523145
v -0.391348 0.381147 0.548202
v -0.270841 0.877343 0.741443
v -0.127261 0.641342 -0.115720
v -0.411873 0.547022 0.560641
v -0.369858 0.349630 0.651339
v 0.071627 0.073735 0.143207
v 0.204124 0.922673 0.465182
v -0.349861 0.277390 0.654592
v -0.231245 0.995715 0.769167
v -0.396823 0.964677 -0.361804
v -0.369858 0.205151 0.651339
v -0.377750 0.418167 0.575679
v 0.130922 0.830393 0.489974
v 0.472542 0.142379 0.946090
v -0.447090 0.146626 0.616661
v -0.404001 0.482271 -0.734604
v -0.436932 0.405746 0.610868
v -0.428877 0.665453 -0.755969
v -0.089033 0.588761 -0.029069
v -0.366614 0.626441 -0.730749
v 0.015561 0.109839 0.145940
v 0.496618 0.365423 0.998028
v -0.014994 0.489203 -0.027741
v -0.434158 0.476414 0.214758
v -0.267083 0.996351 0.820349
v -0.380489 0.484015 0.593040
v -0.359155 0.549174 -0.717516
v 0.055340 0.004734 0.173994
v 0.149374 0.926849 0.545430
v -0.280655 0.910398 0.810239
v 0.496618 0.180324 0.998028
v -0.437782 0.950599 -0.340200
v -0.037546 0.203326 -0.074773
v 0.048885 0.783664 0.444356
v -0.499980 0.561970 0.199626
v 0.373838 0.390745 0.997288
v -0.453326 0.540987 0.211936
v -0.050865 0.371874 -0.014098
v -0.441803 0.520665 0.609044
v -0.447536 0.354714 0.699993
v -0.124435 0.491763 0.048464
v -0.434280 0.277390 0.719514
v -0.038102 0.281008 0.012479
v -0.113653 0.329241 -0.006607
v -0.447007 0.200117 0.699808
v -0.438646 0.512516 -0.692193
v -0.071002 0.217779 -0.026574
v -0.498401 0.416620 0.188702
v -0.498280 0.559873 0.536283
v -0.363694 0.037353 0.216965
v -0.183853 0.617669 -0.040790
v -0.444463 0.451871 -0.888399
v -0.457551 0.626874 -0.700968
v -0.465920 0.381648 -0.837156
v -0.499026 0.472001 0.622841
v -0.430404 0.582790 -0.675529
v -0.499573 0.476051 0.229368
v 0.018193 0.052255 0.190393
v -0.192872 0.340980 0.014792
v 0.008993 0.855816 0.548114
v -0.431070 0.295079 -0.855621
v -0.042617 -0.001572 0.173424
v -0.347995 0.875324 0.788905
v 0.401682 0.134065 0.951984
v -0.084760 0.128302 0.999866
v 0.399448 0.411934 0.948466
v -0.349063 0.054184 0.151154
v -0.499921 0.532750 0.585213
v -0.043200 0.047295 0.175495
v -0.278504 0.490642 0.012616
v -0.113310 0.276477 -0.004087
v -0.389688 0.949811 0.834576
v -0.497577 0.999331 -0.334979
v -0.462874 0.262291 -0.924056
v -0.499936 0.160825 0.644496
v -0.498911 0.647126 -0.778777
v -0.499951 0.625109 -0.729544
v -0.500020 0.434114 -0.897733
v -0.061994 0.079172 0.126366
v -0.258614 0.610954 -0.081157
v -0.096685 0.998842 0.295593
v -0.499989 0.538699 -0.712526
v -0.418863 0.911935 0.782568
v -0.091589 0.863292 0.484413
v -0.102037 0.960927 0.296326
v -0.312014 0.380847 -0.046108
v -0.250529 0.292727 -0.079366
v -0.499946 0.958858 -0.380834
v -0.500028 0.287467 -0.897735
v 0.370467 0.165729 1.000304
v -0.497913 0.488729 -0.760021
v -0.029584 0.794041 0.413627
v -0.461915 0.935755 -0.393260
v -0.473240 0.455743 -0.944287
v -0.018697 0.108068 0.078748
v -0.338095 0.487370 -0.072498
v 0.292759 0.324774 0.945664
v -0.119852 1.000606 0.239198
v -0.077055 0.042157 0.114479
v -0.124232 0.963911 0.253177
v -0.436831 0.996717 0.777651
v -0.137756 0.961564 0.429718
v -0.154331 0.280642 -0.068528
v 0.312077 0.220078 0.993151
v 0.319985 0.172525 0.925852
v -0.118729 0.216627 -0.092769
v -0.095380 0.918021 0.256734
v -0.354211 0.859109 0.706836
v 0.367568 0.394952 0.868748
v 0.312127 0.351381 0.871737
v -0.296309 0.586401 -0.163964
v -0.418189 0.003486 0.152253
v -0.163461 0.075200 0.992195
v -0.337222 0.523925 -0.169430
v -0.349273 0.454300 -0.169760
v -0.445529 0.997450 0.698513
v -0.177088 0.003112 0.989106
v -0.436030 0.918081 0.729379
v -0.337222 0.384674 -0.169430
v 0.282773 0.256528 0.939469
v -0.118683 0.872992 0.400469
v -0.068680 -0.000199 0.097151
v -0.296309 0.322198 -0.163964
v 0.367568 0.150795 0.868748
v -0.100226 0.111328 0.943148
v -0.192137 0.631082 -0.206296
v -0.051123 0.065032 0.053879
v -0.127558 0.932621 0.337428
v 0.299196 0.247284 0.852766
v -0.418863 0.911935 0.676190
v -0.101963 0.934924 0.215216
v -0.066363 0.833660 0.330126
v -0.420691 0.654447 -0.831643
v -0.499463 0.546134 0.476253
v -0.368334 0.004023 0.075000
v -0.254596 0.559718 -0.272738
v -0.498697 0.424454 -0.990931
v -0.123996 0.059473 0.909198
v -0.131763 0.001558 0.904511
v -0.279489 0.454299 -0.290065
v -0.467061 0.959339 -0.436813
v -0.036404 -0.000094 0.046434
v -0.254596 0.348881 -0.272738
v -0.140084 0.269106 -0.133673
v -0.072708 0.911271 0.273393
v -0.499378 0.509152 -0.833248
v -0.498486 0.296449 -0.989957
v -0.498401 0.567821 0.108805
v -0.498877 0.472044 0.423406
v 0.391527 0.245702 0.785408
v -0.443900 0.565931 -0.886490
v -0.032568 0.913619 0.246873
v -0.500014 0.396336 0.446838
v 0.018522 0.851970 0.254529
v -0.068948 0.214636 -0.137657
v -0.355133 0.907199 0.635828
v -0.134564 0.587558 -0.268625
v -0.363496 0.000455 0.252741
v -0.245684 0.004164 0.103267
v -0.266525 0.003602 0.239419
v 0.072118 0.000054 0.144236
v -0.495483 1.000576 -0.438053
v -0.387962 0.999809 -0.352693
v -0.345050 0.997855 0.841488
v -0.132083 1.000122 0.430185
v -0.068713 0.995363 0.544154
v 0.054577 0.997411 0.577499
v 0.188951 1.000165 0.491727
v 0.212506 0.985937 0.425012
v -0.002401 0.999352 0.234538
v -0.427811 0.502320 -0.855625
v -0.421353 0.380191 -0.842707
v -0.396721 0.659724 -0.793012
v -0.022308 0.382644 -0.044378
v -0.001406 0.280880 -0.002813
v -0.043199 0.587096 -0.086422
v 0.402267 0.352291 0.804915
v 0.460440 0.412140 0.920296
v 0.308400 0.299136 1.000000
v -0.500000 0.247661 0.714939
v -0.500021 0.359440 0.689213
v -0.499538 0.406011 0.604715
v -0.500030 0.160817 0.523106
v -0.500000 0.305866 0.464351
v -0.498370 0.364011 0.498681
v -0.498741 0.613770 -0.845347
v -0.500000 0.360789 -0.852852
v -0.439939 0.360883 0.492001
vn 0.8945 -0.0021 -0.4470
vn -1.0000 0.0013 -0.0006
vn 0.1276 -0.1857 -0.9743
vn -0.4613 0.7094 -0.5329
vn -0.5882 -0.4064 -0.6992
vn -0.3030 0.6099 -0.7322
vn 0.1654 0.4545 -0.8752
vn 0.1933 0.9686 -0.1563
vn 0.1372 0.9846 0.1085
vn -0.0120 -0.9897 0.1426
vn -0.0622 0.9872 -0.1467
vn -0.3985 0.2556 -0.8808
vn -0.2526 -0.5956 -0.7626
vn 0.1302 0.9629 -0.2365
vn 0.4721 0.6175 -0.6291
vn 0.4514 0.8618 0.2313
vn 0.2000 -0.9663 0.1622
vn 0.6439 0.0840 0.7605
vn 0.2508 0.7887 0.5613
vn -0.1167 0.1620 -0.9799
vn -0.1203 -0.5609 -0.8191
vn 0.2134 0.8387 -0.5010
vn 0.7092 -0.7002 0.0826
vn 0.6005 0.7948 0.0875
vn -0.1376 0.9678 0.2107
vn -0.1455 -0.9660 0.2136
vn -0.5154 -0.8514 -0.0974
vn -0.4321 -0.8428 -0.3208
vn -0.2125 -0.8741 -0.4367
vn -0.0433 0.7995 -0.5991
vn -0.2067 0.3017 -0.9307
vn -0.0857 -0.6028 -0.7933
vn 0.1392 0.9799 -0.1431
vn 0.2243 0.1143 -0.9678
vn 0.1994 -0.5023 -0.8414
vn 0.5149 0.5929 -0.6191
vn 0.8168 0.0578 -0.5741
vn 0.7198 -0.4969 -0.4848
vn 0.1792 -0.9689 -0.1708
vn 0.1963 0.9802 -0.0272
vn 0.4220 0.9025 0.0860
vn 0.2144 -0.9758 -0.0431
vn 0.4908 -0.7838 0.3805
vn 0.7445 -0.5238 0.4140
vn 0.7445 0.5238 0.4140
vn 0.0950 -0.5338 0.8402
vn 0.3578 -0.2331 0.9042
vn 0.1493 -0.7406 0.6551
vn 0.1762 0.7489 0.6388
vn -0.1056 0.9869 0.1220
vn -0.2204 -0.8473 -0.4833
vn 0.4761 0.8444 -0.2457
vn 0.8846 0.4235 -0.1953
vn 0.5207 0.4853 0.7024
vn 0.0843 -0.9809 0.1753
vn 0.0683 0.9831 0.1696
vn -0.2438 -0.0066 0.9698
vn -0.0036 -0.9748 0.2232
vn -0.0491 -0.8680 0.4942
vn -0.3783 0.7627 0.5246
vn -0.9003 0.1403 0.4120
vn -0.5338 0.8299 0.1623
vn -0.7530 -0.5561 0.3518
vn -0.8763 0.4806 0.0331
vn -0.9394 -0.2237 0.2596
vn -0.7531 -0.5560 -0.3518
vn -0.1393 -0.9899 -0.0279
vn -0.8928 0.4293 -0.1366
vn -0.9394 -0.2237 -0.2596
vn -0.5312 0.1953 -0.8244
vn -0.4908 0.6283 -0.6036
vn 0.0036 -0.8792 -0.4765
vn 0.0167 -0.8747 -0.4843
vn 0.2336 -0.5095 -0.8281
vn -0.3924 0.7377 0.5494
vn -0.6346 0.7640 0.1165
vn -0.9199 -0.2676 -0.2866
vn -0.3671 0.7825 -0.5030
vn 0.0447 -0.8692 -0.4924
vn 0.3250 0.5959 -0.7343
vn -0.0477 0.2542 -0.9660
vn 0.2594 0.9658 -0.0003
vn 0.0535 0.9913 0.1201
vn -0.3538 0.7927 0.4965
vn -0.8224 -0.1469 0.5496
vn -0.6347 0.7412 0.2184
vn -0.8218 -0.5124 0.2490
vn -0.4008 0.6922 -0.6002
vn 0.2509 0.9660 0.0625
vn 0.2449 -0.9678 -0.0581
vn -0.0712 -0.5326 0.8433
vn -0.1028 -0.9916 0.0785
vn -0.5422 -0.8344 -0.0993
vn -0.8719 -0.0126 -0.4896
vn -0.6010 -0.2030 -0.7730
vn -0.0148 0.3158 -0.9487
vn 0.2322 0.0439 -0.9717
vn 0.2354 -0.5871 -0.7745
vn 0.8729 0.0310 -0.4869
vn 0.8634 -0.2029 -0.4620
vn 0.8786 -0.4265 0.2150
vn 0.7056 -0.6681 0.2361
vn 0.4240 -0.0077 0.9056
vn -0.2104 -0.3446 0.9148
vn -0.4710 -0.8383 0.2744
vn -0.1409 -0.9757 0.1680
vn 0.0208 -0.9697 -0.2434
vn 0.7896 -0.4249 -0.4426
vn 0.5890 -0.8047 -0.0749
vn 0.5567 -0.7514 0.3541
vn -0.2203 -0.9754 -0.0054
vn -0.9455 -0.1567 0.2855
vn -0.0117 -0.9571 0.2896
vn -0.1302 0.8202 0.5571
vn -0.7255 0.5742 -0.3794
vn -0.1374 0.9737 -0.1820
vn -0.0017 0.5220 -0.8529
vn 0.5304 -0.3841 -0.7557
vn 0.8163 0.1405 -0.5603
vn 0.5663 0.8194 -0.0881
vn 0.7893 0.0875 0.6078
vn 0.3829 0.7672 0.5146
vn -0.2078 0.7765 0.5948
vn -0.0872 -0.1668 0.9821
vn -0.0669 0.9917 0.1101
vn -0.5809 0.7384 0.3426
vn -0.6412 0.7563 -0.1296
vn -0.9850 0.1641 0.0529
vn -0.7311 0.4398 -0.5217
vn -0.8249 0.0318 -0.5644
vn -0.1195 0.7930 -0.5974
vn -0.1422 0.2448 -0.9591
vn 0.2575 0.1162 -0.9593
vn 0.8394 0.0966 -0.5349
vn 0.6682 0.7323 -0.1311
vn 0.8117 0.4771 0.3370
vn 0.9796 0.1954 0.0469
vn 0.3745 0.8907 0.2577
vn 0.7759 0.1789 0.6050
vn 0.1018 0.9920 0.0749
vn 0.7519 0.4280 0.5014
vn 0.3194 0.7744 0.5462
vn -0.0051 0.9967 0.0805
vn -0.6034 0.6989 0.3840
vn 0.3237 0.8931 0.3123
vn 0.8636 0.0032 0.5042
vn 0.1789 0.9723 0.1505
vn 0.4757 -0.5408 0.6937
vn 0.2265 0.6218 0.7497
vn -0.2678 0.9526 -0.1447
vn -0.4413 0.8520 -0.2816
vn -0.1585 -0.0891 -0.9833
vn 0.3749 0.8344 -0.4040
vn 0.7348 0.5195 0.4361
vn 0.0291 -0.9995 -0.0134
vn 0.0025 -1.0000 0.0060
vn 0.0075 0.9999 -0.0118
vn 0.0064 1.0000 0.0001
vn 0.8948 0.0003 -0.4465
vn 0.8939 -0.0000 -0.4484
vn 0.8963 0.0018 -0.4435
vn 0.0023 -0.0026 1.0000
vn -1.0000 0.0019 0.0001
vn -1.0000 0.0004 -0.0001
vn -0.3668 -0.3082 -0.8777
vn 0.6713 0.5947 -0.4424
vn 0.8428 -0.0202 -0.5378
vn 0.4904 0.5938 0.6380
vn 0.8860 0.4495 0.1142
vn 0.5456 -0.1546 -0.8237
vn -0.3789 0.8119 0.4442
vn -0.7281 0.5810 -0.3639
vn -0.4400 -0.8629 -0.2485
vn -0.4631 0.4978 -0.7333
vn -0.5639 -0.1920 -0.8032
vn -0.2107 -0.7453 -0.6326
vn 0.1855 0.8654 -0.4656
vn 0.3353 -0.8529 -0.4002
vn 0.4349 -0.5450 -0.7168
vn 0.3753 0.1720 -0.9108
vn 0.3609 -0.8334 0.4185
vn 0.1407 -0.5479 0.8246
vn 0.3034 0.4770 0.8249
vn 0.4204 0.4736 -0.7739
vn 0.2445 0.2954 -0.9235
vn -0.4625 0.1703 -0.8701
vn 0.3314 -0.9140 -0.2340
vn -0.2082 -0.8817 0.4234
vn -0.2047 0.8431 0.4972
vn -0.7455 0.1525 -0.6488
vn -0.6784 -0.5116 -0.5273
vn 0.9662 0.1813 -0.1834
vn -0.5292 -0.4035 -0.7464
vn 0.1642 0.8335 -0.5276
vn 0.5095 0.2797 -0.8137
vn 0.4212 -0.5999 -0.6803
vn 0.8204 -0.5343 -0.2037
vn 0.7976 0.5756 -0.1801
vn 0.8214 -0.2262 0.5236
vn 0.9839 -0.1700 -0.0553
vn 0.4194 -0.9045 0.0773
vn 0.8214 0.2262 0.5236
vn 0.4908 0.7838 0.3805
vn 0.2035 0.2283 0.9521
vn -0.1181 0.8117 -0.5720
vn -0.1784 -0.8778 -0.4446
vn 0.6014 -0.7970 -0.0554
vn 0.8967 0.0794 -0.4355
vn 0.7181 -0.5265 -0.4551
vn 0.6539 0.6520 -0.3839
vn 0.9406 -0.1084 -0.3219
vn 0.6635 -0.7424 -0.0934
vn 0.9673 -0.1576 0.1985
vn 0.4237 0.9058 0.0084
vn 0.9140 0.3835 0.1323
vn 0.5788 -0.2090 0.7882
vn 0.7225 0.5755 0.3831
vn 0.4896 -0.5782 0.6526
vn 0.0885 0.8373 0.5395
vn 0.1758 0.6241 0.7613
vn -0.1220 -0.8546 0.5048
vn -0.2456 0.0124 0.9693
vn -0.5378 0.2315 0.8106
vn -0.5160 -0.5937 0.6174
vn -0.6467 -0.7623 -0.0258
vn -0.9210 0.0631 -0.3844
vn -0.5122 -0.5806 -0.6329
vn -0.2389 -0.0486 -0.9698
vn -0.2451 0.0133 -0.9694
vn 0.0955 0.2630 -0.9601
vn 0.2835 -0.5554 0.7818
vn -0.5573 0.1809 0.8104
vn 0.1493 0.2903 0.9452
vn -0.5587 -0.4870 0.6714
vn -0.9515 0.1798 0.2495
vn -0.5759 0.8116 -0.0983
vn -0.8543 -0.4914 0.1693
vn -0.8292 -0.5590 0.0020
vn -0.5937 -0.7958 -0.1195
vn -0.9556 0.2086 -0.2079
vn -0.5621 0.2444 -0.7901
vn -0.3619 -0.7898 -0.4953
vn -0.5615 -0.2452 -0.7903
vn 0.1709 -0.2179 -0.9609
vn 0.0802 -0.5161 0.8528
vn 0.0203 -0.8757 -0.4825
vn -0.0589 0.8396 -0.5401
vn 0.2820 0.2697 0.9207
vn -0.1628 0.8239 0.5428
vn -0.4735 -0.8463 0.2441
vn -0.0988 0.3267 0.9400
vn -0.0857 -0.5613 0.8232
vn -0.3798 -0.0986 0.9198
vn -0.9266 0.3230 0.1926
vn -0.8212 -0.1660 -0.5460
vn -0.3953 0.8384 -0.3753
vn -0.3859 -0.8313 -0.4001
vn -0.9101 0.0678 -0.4087
vn -0.0602 -0.2186 -0.9740
vn -0.1846 0.5525 -0.8128
vn 0.8766 0.0789 0.4747
vn -0.4025 -0.5708 -0.7156
vn 0.4204 -0.6792 -0.6016
vn 0.4008 -0.8982 -0.1807
vn 0.9035 0.3027 -0.3033
vn -0.5466 -0.1720 0.8195
vn 0.0200 -0.5115 0.8591
vn -0.6258 -0.7648 0.1528
vn -0.6234 -0.6988 -0.3508
vn -0.0758 -0.6943 -0.7157
vn -0.1547 -0.8160 -0.5569
vn 0.2991 -0.8299 0.4710
vn -0.8361 -0.5332 0.1290
vn -0.5196 -0.5666 0.6396
vn 0.8720 -0.1709 0.4588
vn 0.5500 -0.8294 0.0982
vn 0.1755 -0.1708 0.9696
vn 0.6766 -0.5946 0.4344
vn 0.2312 -0.6049 0.7620
vn -0.1539 0.1236 0.9803
vn -0.0434 -0.8361 0.5469
vn -0.4471 0.8268 0.3413
vn -0.8417 0.1872 0.5065
vn -0.8274 0.2332 -0.5109
vn -0.9914 0.0653 -0.1135
vn -0.1889 0.2041 -0.9605
vn -0.2974 0.8433 -0.4476
vn 0.9752 0.1230 -0.1842
vn 0.3855 0.6294 -0.6747
vn 0.4636 0.8619 -0.2054
vn -0.2095 0.2140 0.9541
vn 0.6000 0.7935 0.1020
vn 0.9356 0.2195 0.2766
vn 0.5248 0.3115 0.7922
vn 0.3298 0.8184 -0.4705
vn -0.3062 0.8287 0.4685
vn -0.7890 0.5551 -0.2633
vn -0.9452 -0.0763 -0.3174
vn -0.3790 0.8950 -0.2353
vn -0.5061 -0.3150 -0.8029
vn -0.2777 0.5182 -0.8089
vn 0.9446 -0.2418 0.2220
vn 0.5292 0.2719 -0.8037
vn 0.8654 -0.1214 -0.4862
vn 0.9212 0.2856 -0.2643
vn 0.4853 0.5238 0.7001
vn 0.6561 0.7517 0.0677
vn 0.8775 -0.1149 0.4657
vn -0.7686 -0.2303 0.5969
vn 0.2204 0.2980 0.9288
vn -0.1280 0.4403 0.8887
vn -0.1572 0.1280 0.9792
vn 0.7179 0.5289 -0.4525
vn -0.5761 0.6105 0.5435
vn 0.8884 -0.1976 -0.4143
vn 0.8406 0.5350 0.0846
vn 0.8605 0.0884 0.5017
vn -0.0499 -0.0043 0.9987
vn -0.3753 0.6017 0.7051
vn -0.2242 0.8456 0.4844
vn -0.9894 0.0733 0.1256
vn -0.9598 0.2657 -0.0909
vn -0.5271 0.3354 -0.7808
vn 0.4755 0.6472 -0.5958
vn 0.5669 0.7506 0.3395
vt 0.000000 0.000000
vt 0.283586 0.443687
vt 0.158194 0.400598
vt 0.147842 0.575060
vt 0.282156 0.749857
vt 0.220535 0.212823
vt 0.349671 0.443727
vt 0.366291 0.069202
vt 0.366443 0.809131
vt 0.031506 0.193956
vt 0.156250 0.000000
vt 0.778810 0.169991
vt 0.961765 0.212552
vt 0.906250 0.000000
vt 0.745121 0.783788
vt 0.559880 0.860751
vt 0.656250 1.000000
vt 0.468750 0.000000
vt 0.357494 0.179014
vt 0.504262 0.179075
vt 0.257353 0.539282
vt 0.392629 0.439794
vt 0.239320 0.336432
vt 0.402612 0.679892
vt 0.204134 0.694457
vt 0.059583 0.236736
vt 0.218750 0.000000
vt 0.123010 0.407738
vt 0.906161 0.323218
vt 0.996603 0.220944
vt 0.829887 0.078936
vt 0.906250 1.000000
vt 0.955898 0.773358
vt 0.769536 0.538772
vt 0.869278 0.615400
vt 0.731759 0.275513
vt 0.274149 0.319944
vt 0.215847 0.558701
vt 0.287558 0.561405
vt 0.176981 0.843788
vt 0.128734 0.125629
vt 0.088129 0.251594
vt 0.894101 0.724709
vt 0.954118 0.889765
vt 1.000000 0.804766
vt 0.954665 0.110432
vt 0.874154 0.283745
vt 1.000000 0.195234
vt 0.822090 0.125000
vt 0.656250 0.000000
vt 0.574042 0.149853
vt 0.822090 0.875000
vt 0.544067 0.849449
vt 0.383832 0.926556
vt 0.434289 0.750922
vt 0.346499 0.750000
vt 0.215851 0.823060
vt 0.218212 0.308573
vt 0.310202 0.272419
vt 0.279718 0.142252
vt 0.283586 0.556313
vt 0.082962 0.186104
vt 0.146297 0.553061
vt 0.085333 0.375000
vt 0.062500 0.549357
vt 0.066262 0.797938
vt 0.093750 1.000000
vt 1.000000 0.125000
vt 0.968750 0.000000
vt 0.973883 0.250000
vt 0.968750 1.000000
vt 1.000000 0.875000
vt 0.847821 0.679308
vt 0.973883 0.750000
vt 0.975779 0.625000
vt 0.847821 0.320692
vt 0.975779 0.375000
vt 0.746458 0.559917
vt 0.712630 0.760501
vt 0.856911 0.500000
vt 0.724699 0.293641
vt 0.683529 0.109116
vt 0.634528 0.086891
vt 0.343750 1.000000
vt 0.460247 0.888205
vt 0.167396 0.772423
vt 0.161893 0.247034
vt 0.106399 0.081728
vt 0.020078 0.250000
vt 0.086475 0.375000
vt 0.017650 0.467153
vt 0.886272 0.181145
vt 0.783796 0.443852
vt 0.919628 0.451180
vt 0.886272 0.818855
vt 0.711582 0.875930
vt 0.781250 1.000000
vt 0.781250 0.000000
vt 0.726499 0.158823
vt 0.812857 0.559261
vt 0.717085 0.313568
vt 0.606644 0.578877
vt 0.840660 0.784832
vt 0.582962 0.813896
vt 0.718750 1.000000
vt 0.717085 0.686432
vt 0.639135 0.119383
vt 0.586742 0.325355
vt 0.498102 0.470925
vt 0.474352 0.214060
vt 0.500000 0.654770
vt 0.393356 0.578877
vt 0.395510 0.803419
vt 0.468750 1.000000
vt 0.412880 0.375000
vt 0.278296 0.324460
vt 0.282915 0.686433
vt 0.049281 0.874453
vt 0.153380 0.761273
vt 0.186911 0.559476
vt 0.719836 0.308269
vt 0.597134 0.125000
vt 0.587160 0.329159
vt 0.500000 0.345230
vt 0.500000 0.548315
vt 0.422807 0.500000
vt 0.412840 0.670841
vt 0.306232 0.080306
vt 0.279343 0.311432
vt 0.412840 0.329159
vt 0.369853 0.901571
vt 0.280164 0.691732
vt 0.136248 0.875650
vt 0.149152 0.156159
vt 0.206158 0.429199
vt 0.289503 0.500000
vt 0.071081 0.090677
vt 0.123369 0.118475
vt 0.093750 0.000000
vt 0.840777 0.191192
vt 0.810006 0.222339
vt 0.520774 0.078359
vt 0.611864 0.383642
vt 0.511945 0.520491
vt 0.621768 0.684835
vt 0.463633 0.331498
vt 0.463633 0.668502
vt 0.353703 0.446939
vt 0.181998 0.155703
vt 0.076522 0.068910
vt 0.116259 0.090036
vt 0.883741 0.909965
vt 0.923478 0.931090
vt 0.886688 0.844779
vt 0.729431 0.450007
vt 0.623229 0.809036
vt 0.301755 0.833521
vt 0.431645 0.638838
vt 0.422118 0.373883
vt 0.350599 0.406146
vt 0.271708 0.581602
vt 0.131208 0.373779
vt 0.146297 0.553061
vt 0.215650 0.855322
vt 0.025947 0.520491
vt 0.024643 0.680754
vt 1.000000 0.654770
vt 0.976059 0.500000
vt 0.888136 0.616358
vt 0.848417 0.373695
vt 0.715851 0.823060
vt 0.828624 0.695083
vt 0.599171 0.732662
vt 0.453468 0.875000
vt 0.593750 1.000000
vt 0.281250 1.000000
vt 0.141248 0.795739
vt 0.176886 0.677391
vt 0.014352 0.689490
vt 0.011660 0.921641
vt 0.909264 0.921641
vt 0.973573 0.689490
vt 0.617714 0.812536
vt 0.492096 0.793692
vt 0.531250 1.000000
vt 0.581673 0.467433
vt 0.495986 0.503884
vt 0.585333 0.625000
vt 0.861176 0.812514
vt 0.782915 0.313568
vt 0.809417 0.100728
vt 0.652179 0.320692
vt 0.475878 0.193956
vt 0.347821 0.320692
vt 0.505493 0.359546
vt 0.343750 0.000000
vt 0.215851 0.176940
vt 0.170812 0.452954
vt 0.076014 0.539167
vt 0.231989 0.539264
vt 0.087160 0.329159
vt 0.062113 0.059775
vt 0.000000 0.345230
vt 0.912839 0.329159
vt 0.824686 0.514335
vt 0.958343 0.549178
vt 0.772040 0.290400
vt 0.785275 0.125000
vt 0.653476 0.333675
vt 0.789546 0.491682
vt 0.667769 0.559633
vt 0.790808 0.568275
vt 0.521668 0.125000
vt 0.515211 0.321911
vt 0.382479 0.250000
vt 0.437500 0.436519
vt 0.481622 0.539570
vt 0.353703 0.446939
vt 0.417644 0.570237
vt 0.237262 0.078485
vt 0.217085 0.313568
vt 0.267936 0.536913
vt 0.149807 0.544319
vt 0.087160 0.329159
vt 0.023941 0.500000
vt 0.038137 0.125000
vt 0.000000 0.345230
vt 0.937500 0.455372
vt 1.000000 0.345230
vt 0.909684 0.250000
vt 1.000000 0.500000
vt 0.972408 0.125000
vt 0.867775 0.405783
vt 0.896844 0.498449
vt 0.725065 0.197852
vt 0.498819 0.133348
vt 0.546184 0.416253
vt 0.899611 0.316532
vt 0.987459 0.193182
vt 0.818058 0.462789
vt 0.989724 0.428654
vt 0.967945 0.635180
vt 0.709201 0.637469
vt 0.406250 0.000000
vt 0.287696 0.249772
vt 0.538672 0.295042
vt 0.437917 0.325920
vt 0.113267 0.471138
vt 0.437067 0.496333
vt 0.098046 0.061598
vt 0.036009 0.326459
vt 0.808210 0.319206
vt 0.885603 0.496333
vt 0.962150 0.332455
vt 0.038725 0.442644
vt 0.802636 0.462018
vt 0.914815 0.408246
vt 0.999828 0.418603
vt 0.090056 0.688485
vt 0.237262 0.921515
vt 0.008336 0.788155
vt 0.146574 0.498362
vt 0.088116 0.748352
vt 0.373880 0.357299
vt 0.402135 0.561719
vt 0.027154 0.875000
vt 0.407006 0.371730
vt 0.000000 0.375000
vt 0.000000 0.500000
vt 0.000000 0.625000
vt 0.000000 0.750000
vt 0.000000 0.250000
vt 0.377235 0.273019
vt 0.446980 0.119319
vt 0.377235 0.726982
vt 0.000000 0.875000
vt 0.087317 0.923765
vt 0.098453 0.549248
vt 0.024221 0.625000
vt 0.937917 0.674080
vt 1.000000 0.625000
vt 1.000000 0.467153
vt 0.000000 0.125000
vt 0.774168 0.677398
vt 0.835722 0.293179
vt 0.914988 0.146413
vt 0.170999 0.321377
vt 0.580372 0.548821
vt 0.713912 0.569071
vt 0.600374 0.768115
vt 0.710163 0.727650
vt 0.195149 0.709836
vt 0.805537 0.740111
vt 0.793759 0.567814
vt 0.409264 0.921641
vt 0.818003 0.844298
vt 0.782243 0.558161
vt 0.320159 0.676898
vt 0.183604 0.792475
vt 0.217952 0.441844
vt 0.977512 0.373960
vt 0.027592 0.875000
vt 0.000000 0.373977
vt 0.717085 0.686432
vt 0.717396 0.462654
vt 0.494485 0.684553
vt 0.354287 0.685524
vt 0.852118 0.465143
vt 0.849353 0.625000
vt 0.991609 0.663994
vt 0.988625 0.471365
vt 0.984088 0.938648
vt 0.649778 0.546738
vt 0.524068 0.557203
vt 0.350222 0.546739
vt 0.437500 0.555341
vt 0.000000 0.555882
vt 1.000000 0.345230
vt 1.000000 0.570237
vt 0.896206 0.569196
vt 0.024102 0.570237
vt 0.821842 0.414854
vt 0.538037 0.633974
vt 0.646297 0.446939
vt 0.033343 0.193182
vt 0.021641 0.454177
vt 0.133525 0.442571
vt 0.172632 0.106902
vt 0.024442 0.634569
vt 0.146239 0.636850
vt 0.606429 0.474221
vt 0.900324 0.101407
s 0
usemtl Material.001
f 241/1/1 24/1/1 99/1/1
f 121/1/2 248/1/2 247/1/2 246/1/2 2/1/2 26/1/2 139/1/2 154/1/2 214/1/2 101/1/2 123/1/2 215/1/2 200/1/2 115/1/2 134/1/2
f 109/2/3 137/3/3 110/4/3 104/5/3
f 113/6/4 241/7/4 99/8/4
f 104/5/5 240/9/5 241/7/5
f 109/2/6 241/7/6 113/6/6
f 109/2/7 113/6/7 137/3/7
f 172/10/8 113/6/8 99/11/8
f 221/12/9 172/13/9 99/14/9
f 199/15/10 239/16/10 84/17/10
f 17/18/11 82/19/11 46/20/11
f 122/21/12 93/22/12 112/23/12
f 86/24/13 122/21/13 119/25/13
f 157/26/14 82/19/14 17/27/14
f 112/23/15 157/26/15 148/28/15
f 212/29/16 157/30/16 17/31/16
f 199/15/17 84/32/17 142/33/17
f 217/34/18 252/35/18 212/29/18
f 17/31/19 237/36/19 212/29/19
f 127/37/20 120/38/20 238/39/20
f 120/38/21 118/40/21 238/39/21
f 127/37/22 140/41/22 155/42/22
f 203/43/23 160/44/23 144/45/23
f 140/46/24 213/47/24 155/48/24
f 18/49/25 210/50/25 49/51/25
f 192/52/26 38/53/26 69/17/26
f 69/54/27 38/53/27 242/55/27
f 85/56/28 69/54/28 242/55/28
f 69/54/29 85/56/29 117/57/29
f 125/58/30 110/59/30 169/60/30
f 107/61/31 110/59/31 125/58/31
f 85/56/32 107/61/32 117/57/32
f 153/62/33 169/60/33 210/27/33
f 107/61/34 125/58/34 136/63/34
f 117/57/35 107/61/35 136/63/35
f 125/58/36 153/62/36 152/64/36
f 136/63/37 152/64/37 162/65/37
f 146/66/38 136/63/38 162/65/38
f 146/66/39 69/67/39 117/57/39
f 18/49/40 153/68/40 210/69/40
f 189/70/41 153/68/41 18/49/41
f 192/52/42 69/71/42 146/72/42
f 202/73/43 192/52/43 177/74/43
f 202/73/44 177/74/44 180/75/44
f 189/70/45 209/76/45 185/77/45
f 202/73/46 1/78/46 223/79/46
f 1/78/47 202/73/47 206/80/47
f 223/79/48 192/52/48 202/73/48
f 18/49/49 15/81/49 209/76/49
f 19/82/50 130/50/50 80/83/50
f 132/84/51 244/85/51 102/86/51
f 156/87/52 130/88/52 171/89/52
f 170/90/53 171/89/53 186/91/53
f 190/92/54 216/93/54 195/94/54
f 175/95/55 244/96/55 132/97/55
f 190/92/56 130/98/56 19/99/56
f 215/100/57 14/101/57 40/102/57
f 200/103/58 23/104/58 115/105/58
f 28/106/59 23/104/59 200/103/59
f 14/101/60 254/107/60 44/108/60
f 40/102/61 44/108/61 66/109/61
f 44/108/62 254/107/62 67/110/62
f 40/102/63 60/111/63 23/104/63
f 44/108/64 67/110/64 66/109/64
f 66/109/65 60/111/65 40/102/65
f 60/111/66 92/112/66 70/113/66
f 115/114/67 23/104/67 70/113/67
f 67/110/68 78/115/68 66/109/68
f 60/111/69 66/109/69 92/112/69
f 92/112/70 78/115/70 83/116/70
f 78/115/71 67/110/71 83/116/71
f 70/113/72 105/117/72 115/118/72
f 115/118/73 105/117/73 134/119/73
f 134/119/74 105/117/74 121/120/74
f 12/121/75 20/122/75 45/123/75
f 45/123/76 20/122/76 65/124/76
f 62/125/77 74/126/77 71/127/77
f 81/128/78 111/129/78 77/130/78
f 83/131/79 106/132/79 248/133/79
f 111/129/80 141/134/80 246/135/80
f 111/129/81 246/135/81 108/136/81
f 249/137/82 141/138/82 81/139/82
f 249/140/83 81/98/83 20/122/83
f 22/141/84 47/142/84 54/143/84
f 54/143/85 51/144/85 39/145/85
f 54/143/86 47/142/86 64/146/86
f 51/144/87 61/147/87 39/145/87
f 90/148/88 64/146/88 114/149/88
f 22/150/89 114/151/89 47/139/89
f 214/152/90 58/32/90 101/153/90
f 161/154/91 3/155/91 24/156/91
f 161/154/92 24/156/92 87/105/92
f 87/157/93 24/156/93 72/158/93
f 227/159/94 94/160/94 72/158/94
f 72/158/95 94/160/95 124/161/95
f 124/161/96 94/160/96 128/162/96
f 124/161/97 128/162/97 135/163/97
f 87/164/98 124/161/98 135/163/98
f 135/163/99 128/162/99 165/165/99
f 145/166/100 135/163/100 165/165/100
f 145/167/101 165/168/101 193/169/101
f 193/169/102 161/154/102 145/167/102
f 208/170/103 3/155/103 193/169/103
f 25/171/104 201/172/104 225/173/104
f 225/173/105 50/174/105 25/171/105
f 25/171/106 50/174/106 133/175/106
f 133/176/107 50/174/107 116/177/107
f 116/177/108 224/178/108 178/179/108
f 133/180/109 116/177/109 178/179/109
f 201/172/110 133/181/110 178/182/110
f 27/183/111 57/184/111 131/185/111
f 43/186/112 63/187/112 41/188/112
f 191/189/113 27/183/113 131/97/113
f 222/190/114 174/191/114 34/192/114
f 68/193/115 96/194/115 55/195/115
f 174/196/116 129/197/116 68/193/116
f 138/198/117 96/194/117 129/197/117
f 138/198/118 167/199/118 230/200/118
f 138/198/119 149/201/119 167/199/119
f 149/201/120 174/202/120 184/203/120
f 196/204/121 7/205/121 182/206/121
f 174/191/122 222/190/122 196/204/122
f 220/207/123 21/208/123 35/209/123
f 9/210/124 33/211/124 236/212/124
f 21/208/125 100/50/125 48/213/125
f 35/209/126 48/213/126 56/214/126
f 48/213/127 79/215/127 56/214/127
f 73/216/128 235/217/128 56/214/128
f 79/215/129 95/218/129 73/216/129
f 95/218/130 234/219/130 73/216/130
f 100/220/131 126/221/131 79/215/131
f 233/222/132 95/218/132 126/221/132
f 233/222/133 126/221/133 232/223/133
f 232/223/134 150/224/134 168/225/134
f 150/224/135 158/226/135 187/227/135
f 194/228/136 187/229/136 198/230/136
f 187/229/137 194/228/137 168/231/137
f 198/230/138 158/232/138 21/208/138
f 211/233/139 151/234/139 194/228/139
f 21/208/140 158/232/140 100/14/140
f 198/230/141 211/233/141 194/228/141
f 21/208/142 220/207/142 198/230/142
f 37/235/143 211/50/143 218/236/143
f 37/235/144 218/236/144 9/237/144
f 197/238/145 173/239/145 37/235/145
f 197/238/146 11/240/146 166/241/146
f 37/235/147 173/239/147 211/14/147
f 164/242/148 11/240/148 6/243/148
f 11/240/149 197/238/149 37/235/149
f 159/244/150 98/245/150 53/246/150
f 53/246/151 98/245/151 76/247/151
f 98/245/152 139/248/152 229/249/152
f 98/245/153 159/250/153 154/251/153
f 207/252/154 228/253/154 154/254/154
f 13/1/155 3/1/155 208/1/155 188/1/155 59/1/155 225/1/155 201/1/155
f 183/1/156 2/1/156 13/1/156 201/1/156 178/1/156 224/1/156 226/1/156 59/1/156 188/1/156 128/1/156 94/1/156 227/1/156 10/1/156 63/1/156 43/1/156 8/1/156 205/1/156
f 29/1/157 235/1/157 234/1/157 233/1/157 232/1/157 231/1/157 52/1/157 75/1/157 91/1/157 230/1/157 167/1/157 26/1/157
f 6/1/158 236/1/158 33/1/158 16/1/158 228/1/158 36/1/158 229/1/158 139/1/158 26/1/158 167/1/158 182/1/158 7/1/158 31/1/158 52/1/158 231/1/158 147/1/158 164/1/158
f 235/1/159 29/1/159 88/1/159 244/1/159 243/1/159 216/1/159 19/1/159 80/1/159 97/1/159 10/1/159 227/1/159 72/1/159 24/1/159 241/1/159 240/1/159 89/1/159 242/1/159 33/1/159 35/1/159 56/1/159
f 16/1/160 33/1/160 242/1/160 38/1/160 223/1/160 1/1/160 15/1/160 49/1/160 221/1/160 99/1/160 24/1/160 3/1/160 13/1/160 213/1/160 140/1/160 127/1/160 238/1/160 118/1/160 217/1/160 237/1/160 46/1/160 93/1/160 86/1/160 239/1/160 199/1/160
f 118/1/161 160/1/161 203/1/161 16/1/161 199/1/161 217/1/161
f 156/1/162 170/1/162 245/1/162 102/1/162 88/1/162 29/1/162 26/1/162 2/1/162 183/1/162 179/1/162 131/1/162 57/1/162 63/1/162 10/1/162 97/1/162
f 252/1/163 142/1/163 143/1/163 148/1/163 157/1/163 212/1/163 144/1/163 253/1/163 155/1/163 213/1/163 13/1/163 2/1/163 246/1/163 141/1/163 249/1/163 250/1/163 251/1/163 219/1/163 215/1/163 123/1/163 114/1/163 22/1/163 5/1/163 214/1/163 154/1/163 228/1/163 16/1/163
f 16/1/164 203/1/164 144/1/164 212/1/164 252/1/164
f 109/2/165 104/5/165 241/7/165
f 172/10/166 169/255/166 137/3/166 113/6/166
f 110/4/167 137/3/167 169/255/167
f 49/256/168 210/257/168 172/13/168 221/12/168
f 210/257/169 169/258/169 172/13/169
f 122/21/170 148/28/170 143/259/170 119/25/170
f 237/36/171 17/31/171 46/20/171
f 46/20/172 82/19/172 93/22/172
f 86/24/173 84/260/173 239/16/173
f 112/23/174 93/22/174 82/19/174
f 86/24/175 93/22/175 122/21/175
f 84/260/176 86/24/176 119/25/176
f 112/23/177 82/19/177 157/26/177
f 119/25/178 143/259/178 142/261/178 84/260/178
f 120/38/179 253/262/179 144/263/179 118/40/179
f 122/21/180 112/23/180 148/28/180
f 252/35/181 199/15/181 142/33/181
f 217/34/182 199/15/182 252/35/182
f 237/36/183 217/34/183 212/29/183
f 253/262/184 127/37/184 155/42/184
f 120/38/185 127/37/185 253/262/185
f 104/264/186 110/59/186 107/61/186 89/265/186
f 160/266/187 118/40/187 144/263/187
f 38/53/188 192/52/188 223/79/188
f 15/81/189 18/49/189 49/51/189
f 240/267/190 104/264/190 89/265/190
f 89/265/191 85/56/191 242/55/191
f 185/268/192 181/269/192 162/65/192 152/64/192
f 85/56/193 89/265/193 107/61/193
f 125/58/194 169/60/194 153/62/194
f 136/63/195 125/58/195 152/64/195
f 146/66/196 117/57/196 136/63/196
f 162/65/197 180/270/197 177/271/197 146/66/197
f 189/272/198 185/268/198 152/64/198 153/62/198
f 206/80/199 202/73/199 180/75/199 181/168/199
f 162/65/200 181/269/200 180/270/200
f 177/74/201 192/52/201 146/72/201
f 206/80/202 181/168/202 185/77/202 209/76/202
f 209/76/203 189/70/203 18/49/203
f 1/78/204 206/80/204 209/76/204 15/81/204
f 156/87/205 97/273/205 80/274/205 130/88/205
f 88/275/206 102/86/206 244/85/206
f 102/86/207 176/271/207 175/276/207 132/277/207
f 170/90/208 186/91/208 245/278/208
f 245/278/209 163/279/209 102/86/209
f 170/90/210 156/87/210 171/89/210
f 245/278/211 186/91/211 163/279/211
f 176/271/212 102/86/212 163/279/212
f 195/94/213 176/280/213 163/281/213 186/282/213
f 171/89/214 130/88/214 190/283/214
f 195/94/215 186/282/215 171/70/215
f 216/93/216 243/284/216 176/280/216 195/94/216
f 171/70/217 190/92/217 195/94/217
f 175/95/218 176/280/218 243/284/218
f 14/101/219 219/285/219 251/286/219 254/107/219
f 190/92/220 19/99/220 216/93/220
f 243/284/221 244/96/221 175/95/221
f 215/100/222 40/102/222 28/106/222
f 40/102/223 14/101/223 44/108/223
f 28/106/224 40/102/224 23/104/224
f 23/104/225 60/111/225 70/113/225
f 92/112/226 66/109/226 78/115/226
f 70/113/227 92/112/227 105/117/227
f 121/120/228 92/112/228 83/116/228
f 105/117/229 92/112/229 121/120/229
f 121/120/230 83/116/230 248/287/230
f 200/103/231 215/100/231 28/106/231
f 45/123/232 42/288/232 4/289/232 12/121/232
f 219/285/233 14/101/233 215/100/233
f 67/290/234 254/291/234 4/289/234 42/288/234
f 65/124/235 62/125/235 42/288/235 45/123/235
f 77/130/236 65/124/236 20/122/236 81/128/236
f 42/288/237 62/125/237 67/290/237
f 67/290/238 62/125/238 71/127/238
f 83/131/239 67/290/239 71/127/239
f 65/124/240 77/130/240 74/126/240 62/125/240
f 77/130/241 111/129/241 108/136/241 74/126/241
f 83/131/242 71/127/242 106/132/242
f 108/136/243 106/132/243 71/127/243 74/126/243
f 246/135/244 247/292/244 106/132/244 108/136/244
f 4/289/245 254/291/245 251/293/245 250/294/245
f 247/292/246 248/133/246 106/132/246
f 111/129/247 81/128/247 141/134/247
f 250/294/248 249/140/248 12/121/248 4/289/248
f 249/140/249 20/122/249 12/121/249
f 58/295/250 214/296/250 39/145/250 61/147/250
f 5/297/251 22/141/251 54/143/251
f 5/297/252 39/145/252 214/296/252
f 5/297/253 54/143/253 39/145/253
f 51/144/254 54/143/254 64/146/254
f 90/148/255 103/298/255 61/147/255 51/144/255
f 47/142/256 114/149/256 64/146/256
f 103/298/257 101/299/257 58/295/257 61/147/257
f 90/148/258 51/144/258 64/146/258
f 123/300/259 101/299/259 103/298/259 90/148/259
f 123/300/260 90/148/260 114/149/260
f 193/169/261 165/168/261 188/301/261 208/170/261
f 87/164/262 72/158/262 124/161/262
f 145/166/263 87/164/263 135/163/263
f 161/302/264 87/164/264 145/166/264
f 165/165/265 128/162/265 188/303/265
f 41/188/266 30/304/266 8/305/266 43/186/266
f 161/154/267 193/169/267 3/155/267
f 225/173/268 59/306/268 50/174/268
f 50/174/269 59/306/269 226/307/269
f 224/178/270 116/177/270 226/307/270
f 50/174/271 226/307/271 116/177/271
f 201/172/272 25/171/272 133/181/272
f 57/184/273 27/183/273 41/188/273 63/187/273
f 30/304/274 41/188/274 27/183/274
f 205/308/275 204/309/275 179/310/275 183/311/275
f 179/310/276 191/189/276 131/312/276
f 204/309/277 205/308/277 8/305/277 30/304/277
f 204/309/278 191/189/278 179/310/278
f 191/189/279 204/309/279 30/304/279
f 34/192/280 31/313/280 7/205/280 222/190/280
f 30/304/281 27/183/281 191/189/281
f 68/193/282 55/195/282 34/192/282 174/191/282
f 55/195/283 52/314/283 31/313/283 34/192/283
f 55/195/284 96/194/284 91/315/284 75/316/284
f 75/316/285 52/314/285 55/195/285
f 96/194/286 138/198/286 230/200/286 91/315/286
f 68/193/287 129/197/287 96/194/287
f 184/203/288 182/317/288 167/199/288 149/201/288
f 138/198/289 129/197/289 149/201/289
f 149/201/290 129/197/290 174/202/290
f 35/209/291 33/211/291 9/210/291 220/207/291
f 196/204/292 184/318/292 174/191/292
f 184/318/293 196/204/293 182/206/293
f 196/204/294 222/190/294 7/205/294
f 158/226/295 150/224/295 126/221/295 100/220/295
f 35/209/296 21/208/296 48/213/296
f 56/214/297 79/215/297 73/216/297
f 235/217/298 73/216/298 234/219/298
f 48/213/299 100/220/299 79/215/299
f 95/218/300 233/222/300 234/219/300
f 126/221/301 95/218/301 79/215/301
f 231/319/302 168/231/302 194/228/302 147/320/302
f 232/223/303 126/221/303 150/224/303
f 232/223/304 168/225/304 231/321/304
f 168/225/305 150/224/305 187/227/305
f 218/322/306 211/233/306 198/230/306 220/207/306
f 198/230/307 187/229/307 158/232/307
f 147/320/308 194/228/308 151/234/308
f 236/323/309 6/243/309 32/324/309 9/237/309
f 218/322/310 220/207/310 9/210/310
f 37/235/311 32/324/311 11/240/311
f 11/240/312 32/324/312 6/243/312
f 173/325/313 166/326/313 151/327/313 211/328/313
f 32/324/314 37/235/314 9/237/314
f 151/327/315 166/326/315 164/329/315 147/330/315
f 197/238/316 166/241/316 173/239/316
f 164/242/317 166/241/317 11/240/317
f 228/253/318 207/252/318 36/331/318
f 36/331/319 207/252/319 53/246/319
f 207/252/320 159/332/320 53/246/320
f 53/246/321 229/249/321 36/331/321
f 53/246/322 76/247/322 229/249/322
f 76/247/323 98/245/323 229/249/323
f 139/248/324 98/245/324 154/251/324
f 207/252/325 154/254/325 159/332/325
