# Blender 4.5.3 LTS
# www.blender.org
mtllib pipeTransit.mtl
o Cylinder
v -1.000000 1.000000 -1.000000
v 1.000000 1.000000 -1.000000
v -1.000000 0.500000 -0.866025
v 1.000000 0.500000 -0.866026
v -1.000000 0.133975 -0.500000
v 1.000000 0.133975 -0.500000
v -1.000000 -0.000000 -0.000000
v 1.000000 0.000000 -0.000000
v -1.000000 0.133974 0.500000
v 1.000000 0.133975 0.500000
v -1.000000 0.500000 0.866025
v 1.000000 0.500000 0.866025
v -1.000000 1.000000 1.000000
v 1.000000 1.000000 1.000000
v -1.000000 1.500000 0.866026
v 1.000000 1.500000 0.866025
v -1.000000 1.866025 0.500000
v 1.000000 1.866025 0.500000
v -1.000000 2.000000 0.000000
v 1.000000 2.000000 0.000000
v -1.000000 1.866025 -0.500000
v 1.000000 1.866025 -0.500000
v -1.000000 1.500000 -0.866025
v 1.000000 1.500000 -0.866025
v 0.500000 0.133975 -0.500000
v 0.500000 1.866025 -0.500000
vn -0.0000 -0.2588 -0.9659
vn -0.0000 -0.7071 -0.7071
vn -0.0000 -0.9659 -0.2588
vn -0.0000 -0.9659 0.2588
vn -0.0000 -0.7071 0.7071
vn -0.0000 -0.2588 0.9659
vn -0.0000 0.2588 0.9659
vn -0.0000 0.7071 0.7071
vn -0.0000 0.9659 0.2588
vn -0.0000 0.9659 -0.2588
vn -0.0000 0.7071 -0.7071
vn -0.0000 0.2588 -0.9659
vn -1.0000 -0.0000 -0.0000
vt 1.000000 0.500000
vt 1.000000 1.000000
vt 0.916667 1.000000
vt 0.916667 0.500000
vt 0.833333 1.000000
vt 0.833333 0.500000
vt 0.750000 1.000000
vt 0.750000 0.500000
vt 0.666667 1.000000
vt 0.666667 0.500000
vt 0.583333 1.000000
vt 0.583333 0.500000
vt 0.500000 1.000000
vt 0.500000 0.500000
vt 0.416667 1.000000
vt 0.416667 0.500000
vt 0.333333 1.000000
vt 0.333333 0.500000
vt 0.250000 1.000000
vt 0.250000 0.500000
vt 0.166667 1.000000
vt 0.166667 0.500000
vt 0.083333 1.000000
vt 0.083333 0.500000
vt 0.000000 1.000000
vt 0.000000 0.500000
vt 0.750000 0.490000
vt 0.870000 0.457846
vt 0.957846 0.370000
vt 0.990000 0.250000
vt 0.957846 0.130000
vt 0.870000 0.042154
vt 0.750000 0.010000
vt 0.630000 0.042154
vt 0.542154 0.130000
vt 0.510000 0.250000
vt 0.542154 0.370000
vt 0.630000 0.457846
s 0
usemtl Material.002
f 1/1/1 2/2/1 4/3/1 3/4/1
f 3/4/2 4/3/2 6/5/2 5/6/2
f 5/6/3 6/5/3 8/7/3 7/8/3
f 7/8/4 8/7/4 10/9/4 9/10/4
f 9/10/5 10/9/5 12/11/5 11/12/5
f 11/12/6 12/11/6 14/13/6 13/14/6
f 13/14/7 14/13/7 16/15/7 15/16/7
f 15/16/8 16/15/8 18/17/8 17/18/8
f 17/18/9 18/17/9 20/19/9 19/20/9
f 19/20/10 20/19/10 22/21/10 21/22/10
f 21/22/11 22/21/11 24/23/11 23/24/11
f 23/24/12 24/23/12 2/25/12 1/26/12
f 1/27/13 3/28/13 5/29/13 7/30/13 9/31/13 11/32/13 13/33/13 15/34/13 17/35/13 19/36/13 21/37/13 23/38/13
o Circle
v 0.500000 1.000000 -1.000000
v 0.500000 1.500000 -0.866025
v 0.500000 1.866025 -0.500000
v 0.500000 2.000000 0.000000
v 0.500000 1.866025 0.500000
v 0.500000 1.500000 0.866025
v 0.500000 1.000000 1.000000
v 0.500000 0.500000 0.866025
v 0.500000 0.133975 0.500000
v 0.500000 0.000000 -0.000000
v 0.500000 0.133975 -0.500000
v 0.500000 0.500000 -0.866025
vn 1.0000 -0.0000 -0.0000
vt 0.000000 0.000000
s 0
usemtl Material.001
f 28/39/14 29/39/14 30/39/14 31/39/14 32/39/14 33/39/14 34/39/14 35/39/14 36/39/14 37/39/14 38/39/14 27/39/14
