# Blender 4.5.3 LTS
# www.blender.org
mtllib pipeA.mtl
o Cylinder
v 0.000000 -1.000000 -1.000000
v 0.000000 1.000000 -1.000000
v 0.500000 -1.000000 -0.866025
v 0.500000 1.000000 -0.866025
v 0.866025 -1.000000 -0.500000
v 0.866025 1.000000 -0.500000
v 1.000000 -1.000000 0.000000
v 1.000000 1.000000 0.000000
v 0.866025 -1.000000 0.500000
v 0.866025 1.000000 0.500000
v 0.500000 -1.000000 0.866025
v 0.500000 1.000000 0.866025
v 0.000000 -1.000000 1.000000
v 0.000000 1.000000 1.000000
v -0.500000 -1.000000 0.866025
v -0.500000 1.000000 0.866025
v -0.866025 -1.000000 0.500000
v -0.866025 1.000000 0.500000
v -1.000000 -1.000000 0.000000
v -1.000000 1.000000 0.000000
v -0.866025 -1.000000 -0.500000
v -0.866025 1.000000 -0.500000
v -0.500000 -1.000000 -0.866025
v -0.500000 1.000000 -0.866025
v 0.000000 1.800000 -1.000000
v 0.500000 1.800000 -0.866025
v 0.866025 1.800000 -0.500000
v 1.000000 1.800000 0.000000
v 0.866025 1.800000 0.500000
v 0.500000 1.800000 0.866025
v 0.000000 1.800000 1.000000
v -0.500000 1.800000 0.866025
v -0.866025 1.800000 0.500000
v -1.000000 1.800000 0.000000
v -0.866025 1.800000 -0.500000
v -0.500000 1.800000 -0.866025
v -0.000000 4.000000 3.000000
v 0.500000 3.866026 3.000000
v 0.866025 3.500000 3.000000
v 1.000000 3.000000 3.000000
v 0.866025 2.500000 3.000000
v 0.500000 2.133975 3.000000
v 0.000000 2.000000 3.000000
v -0.500000 2.133975 3.000000
v -0.866025 2.500000 3.000000
v -1.000000 3.000000 3.000000
v -0.866025 3.500000 3.000000
v -0.500000 3.866026 3.000000
v -0.000000 2.707408 -0.853909
v 0.000000 3.743662 0.109595
v 0.000000 3.993807 1.058666
v -0.500000 2.656384 -0.730031
v -0.500000 3.626799 0.175111
v -0.500000 3.860062 1.066507
v -0.866026 2.516984 -0.391590
v -0.866025 3.307524 0.354104
v -0.866025 3.494663 1.087928
v -1.000000 2.326561 0.070730
v -1.000000 2.871388 0.598613
v -1.000000 2.995521 1.117189
v -0.866026 2.136138 0.533049
v -0.866025 2.435251 0.843121
v -0.866025 2.496377 1.146451
v -0.500000 1.996738 0.871490
v -0.500000 2.115977 1.022114
v -0.500000 2.130980 1.167872
v -0.000000 1.945715 0.995368
v -0.000000 1.999114 1.087630
v -0.000000 1.997235 1.175713
v 0.500000 1.996739 0.871490
v 0.500000 2.115977 1.022114
v 0.500000 2.130980 1.167872
v 0.866026 2.136138 0.533049
v 0.866025 2.435251 0.843121
v 0.866025 2.496377 1.146451
v 1.000000 2.326561 0.070730
v 1.000000 2.871388 0.598613
v 1.000000 2.995520 1.117189
v 0.866026 2.516984 -0.391590
v 0.866025 3.307524 0.354104
v 0.866025 3.494663 1.087928
v 0.500000 3.860061 1.066507
v 0.500000 3.626799 0.175111
v 0.500000 2.656384 -0.730031
v 0.500000 4.000000 3.133975
v 0.000000 4.000000 3.000000
v 0.000000 -1.000000 3.000000
v 0.000000 1.000000 3.000000
v 0.500000 -1.000000 3.133975
v 0.500000 1.000000 3.133975
v 0.866025 -1.000000 3.500000
v 0.866025 1.000000 3.500000
v 1.000000 -1.000000 4.000000
v 1.000000 1.000000 4.000000
v 0.866025 -1.000000 4.500000
v 0.866025 1.000000 4.500000
v 0.500000 -1.000000 4.866025
v 0.500000 1.000000 4.866025
v 0.000000 -1.000000 5.000000
v 0.000000 1.000000 5.000000
v -0.500000 -1.000000 4.866025
v -0.500000 1.000000 4.866025
v -0.866025 -1.000000 4.500000
v -0.866025 1.000000 4.500000
v -1.000000 -1.000000 4.000000
v -1.000000 1.000000 4.000000
v -0.866025 -1.000000 3.500000
v -0.866025 1.000000 3.500000
v -0.500000 -1.000000 3.133975
v -0.500000 1.000000 3.133975
v 0.866025 4.000000 3.500000
v 1.000000 4.000000 4.000000
v 0.866025 4.000000 4.500000
v 0.500000 4.000000 4.866025
v 0.000000 4.000000 5.000000
v -0.500000 4.000000 4.866025
v -0.866025 4.000000 4.500000
v -1.000000 4.000000 4.000000
v -0.866025 4.000000 3.500000
v -0.500000 4.000000 3.133975
v -0.000000 4.000000 4.000000
v 0.500000 3.866026 4.000000
v 0.866025 3.500001 4.000000
v 1.000000 3.000001 4.000000
v 0.866025 2.500001 4.000000
v 0.500000 2.133975 4.000000
v 0.000000 2.000001 4.000000
v -0.500000 2.133975 4.000000
v -0.866025 2.500001 4.000000
v -1.000000 3.000001 4.000000
v -0.866025 3.500001 4.000000
v -0.500000 3.866026 4.000000
v 0.500000 4.000000 3.133975
v 0.000000 4.000000 3.000000
v 0.866025 4.000000 3.500000
v 1.000000 4.000000 4.000000
v 0.866025 4.000000 4.500000
v 0.500000 4.000000 4.866025
v 0.000000 4.000000 5.000000
v -0.500000 4.000000 4.866025
v -0.866025 4.000000 4.500000
v -1.000000 4.000000 4.000000
v -0.866025 4.000000 3.500000
v -0.500000 4.000000 3.133975
v 0.500000 5.000000 3.133975
v 0.000000 5.000000 3.000000
v 0.866025 5.000000 3.500000
v 1.000000 5.000000 4.000000
v 0.866025 5.000000 4.500000
v 0.500000 5.000000 4.866025
v 0.000000 5.000000 5.000000
v -0.500000 5.000000 4.866025
v -0.866025 5.000000 4.500000
v -1.000000 5.000000 4.000000
v -0.866025 5.000000 3.500000
v -0.500000 5.000000 3.133975
vn 0.2588 -0.0000 -0.9659
vn 0.7071 -0.0000 -0.7071
vn 0.9659 -0.0000 -0.2588
vn 0.9659 -0.0000 0.2588
vn 0.7071 -0.0000 0.7071
vn 0.2588 -0.0000 0.9659
vn -0.2588 -0.0000 0.9659
vn -0.7071 -0.0000 0.7071
vn -0.9659 -0.0000 0.2588
vn -0.9659 -0.0000 -0.2588
vn -0.7071 -0.0000 -0.7071
vn -0.2588 -0.0000 -0.9659
vn -0.0000 -1.0000 -0.0000
vn -0.9659 0.2588 -0.0000
vn 0.7068 0.7074 -0.0021
vn 0.9659 0.2590 -0.0007
vn 0.9659 -0.2590 0.0006
vn 0.7068 -0.7074 0.0013
vn 0.2586 -0.9660 0.0015
vn -0.2586 -0.9660 0.0015
vn -0.7068 -0.7074 0.0013
vn -0.9659 -0.2590 0.0006
vn -0.9659 0.2590 -0.0007
vn -0.7068 0.7074 -0.0021
vn -0.2586 0.9660 -0.0030
vn 0.2586 0.9660 -0.0030
vn -0.2526 0.9358 -0.2458
vn -0.2453 0.6607 -0.7095
vn -0.2541 0.1527 -0.9551
vn -0.6977 0.6935 -0.1794
vn -0.6865 0.4973 -0.5305
vn -0.7000 0.1096 -0.7057
vn -0.9642 0.2575 -0.0640
vn -0.9620 0.1885 -0.1976
vn -0.9646 0.0376 -0.2611
vn -0.9641 -0.2591 0.0584
vn -0.9619 -0.1926 0.1939
vn -0.9645 -0.0316 0.2623
vn -0.6955 -0.7084 0.1201
vn -0.6845 -0.5397 0.4901
vn -0.6976 -0.0517 0.7147
vn -0.2465 -0.9676 0.0543
vn -0.2394 -0.7914 0.5625
vn -0.2498 -0.0024 0.9683
vn 0.2465 -0.9676 0.0543
vn 0.2394 -0.7914 0.5625
vn 0.2498 -0.0024 0.9683
vn 0.6955 -0.7084 0.1201
vn 0.6845 -0.5397 0.4901
vn 0.6976 -0.0517 0.7147
vn 0.9641 -0.2591 0.0584
vn 0.9619 -0.1926 0.1939
vn 0.9645 -0.0316 0.2623
vn 0.9642 0.2575 -0.0640
vn 0.9620 0.1885 -0.1976
vn 0.9646 0.0376 -0.2611
vn 0.6977 0.6935 -0.1794
vn 0.6865 0.4973 -0.5305
vn 0.7000 0.1096 -0.7057
vn 0.2526 0.9358 -0.2458
vn 0.2453 0.6607 -0.7095
vn 0.2541 0.1527 -0.9551
vn -0.0000 -0.0000 1.0000
vn -0.0000 1.0000 -0.0000
vn -0.2588 -0.9659 -0.0000
vn 0.9659 -0.2588 -0.0000
vn -0.7071 0.7071 -0.0000
vn 0.2588 0.9659 -0.0000
vn -0.7071 -0.7071 -0.0000
vn 0.7071 -0.7071 -0.0000
vn -0.2588 0.9659 -0.0000
vn 0.7071 0.7071 -0.0000
vn -0.9659 -0.2588 -0.0000
vn 0.2588 -0.9659 -0.0000
vn 0.9659 0.2588 -0.0000
vt 1.000000 0.500000
vt 1.000000 1.000000
vt 0.916667 1.000000
vt 0.916667 0.500000
vt 0.833333 1.000000
vt 0.833333 0.500000
vt 0.750000 1.000000
vt 0.750000 0.500000
vt 0.666667 1.000000
vt 0.666667 0.500000
vt 0.583333 1.000000
vt 0.583333 0.500000
vt 0.500000 1.000000
vt 0.500000 0.500000
vt 0.416667 1.000000
vt 0.416667 0.500000
vt 0.333333 1.000000
vt 0.333333 0.500000
vt 0.250000 1.000000
vt 0.250000 0.500000
vt 0.166667 1.000000
vt 0.166667 0.500000
vt 0.457846 0.370000
vt 0.490000 0.250000
vt 0.083333 1.000000
vt 0.083333 0.500000
vt 0.000000 1.000000
vt 0.000000 0.500000
vt 0.750000 0.490000
vt 0.870000 0.457846
vt 0.957846 0.370000
vt 0.990000 0.250000
vt 0.957846 0.130000
vt 0.870000 0.042154
vt 0.750000 0.010000
vt 0.630000 0.042154
vt 0.542154 0.130000
vt 0.510000 0.250000
vt 0.542154 0.370000
vt 0.630000 0.457846
vt 0.370000 0.457846
vt 0.042154 0.370000
vt 0.010000 0.250000
vt 0.457846 0.130000
vt 0.370000 0.042154
vt 0.250000 0.010000
vt 0.130000 0.042154
vt 0.042154 0.130000
vt 0.130000 0.457846
vt 0.250000 0.490000
vt 0.130000 0.457846
vt 0.457846 0.130000
vt 0.457846 0.370000
vt 0.370000 0.457846
s 0
f 1/1/1 2/2/1 4/3/1 3/4/1
f 3/4/2 4/3/2 6/5/2 5/6/2
f 5/6/3 6/5/3 8/7/3 7/8/3
f 7/8/4 8/7/4 10/9/4 9/10/4
f 9/10/5 10/9/5 12/11/5 11/12/5
f 11/12/6 12/11/6 14/13/6 13/14/6
f 13/14/7 14/13/7 16/15/7 15/16/7
f 15/16/8 16/15/8 18/17/8 17/18/8
f 17/18/9 18/17/9 20/19/9 19/20/9
f 19/20/10 20/19/10 22/21/10 21/22/10
f 27/23/3 28/24/3 8/7/3 6/5/3
f 21/22/11 22/21/11 24/25/11 23/26/11
f 23/26/12 24/25/12 2/27/12 1/28/12
f 1/29/13 3/30/13 5/31/13 7/32/13 9/33/13 11/34/13 13/35/13 15/36/13 17/37/13 19/38/13 21/39/13 23/40/13
f 26/41/2 27/23/2 6/5/2 4/3/2
f 47/42/14 46/43/14 130/43/14 131/42/14
f 38/41/15 39/23/15 81/23/15 82/41/15
f 39/23/16 40/24/16 78/24/16 81/23/16
f 40/24/17 41/44/17 75/44/17 78/24/17
f 41/44/18 42/45/18 72/45/18 75/44/18
f 42/45/19 43/46/19 69/46/19 72/45/19
f 43/46/20 44/47/20 66/47/20 69/46/20
f 44/47/21 45/48/21 63/48/21 66/47/21
f 45/48/22 46/43/22 60/43/22 63/48/22
f 46/43/23 47/42/23 57/42/23 60/43/23
f 47/42/24 48/49/24 54/49/24 57/42/24
f 48/49/25 37/50/25 51/50/25 54/49/25
f 37/50/26 38/41/26 82/41/26 51/50/26
f 54/49/27 51/50/27 50/50/27 53/51/27
f 53/51/28 50/50/28 49/50/28 52/49/28
f 52/49/29 49/50/29 25/50/29 36/49/29
f 57/42/30 54/49/30 53/51/30 56/42/30
f 56/42/31 53/51/31 52/49/31 55/42/31
f 55/42/32 52/49/32 36/49/32 35/42/32
f 60/43/33 57/42/33 56/42/33 59/43/33
f 59/43/34 56/42/34 55/42/34 58/43/34
f 58/43/35 55/42/35 35/42/35 34/43/35
f 63/48/36 60/43/36 59/43/36 62/48/36
f 62/48/37 59/43/37 58/43/37 61/48/37
f 61/48/38 58/43/38 34/43/38 33/48/38
f 66/47/39 63/48/39 62/48/39 65/47/39
f 65/47/40 62/48/40 61/48/40 64/47/40
f 64/47/41 61/48/41 33/48/41 32/47/41
f 69/46/42 66/47/42 65/47/42 68/46/42
f 68/46/43 65/47/43 64/47/43 67/46/43
f 67/46/44 64/47/44 32/47/44 31/46/44
f 72/45/45 69/46/45 68/46/45 71/45/45
f 71/45/46 68/46/46 67/46/46 70/45/46
f 70/45/47 67/46/47 31/46/47 30/45/47
f 75/44/48 72/45/48 71/45/48 74/52/48
f 74/52/49 71/45/49 70/45/49 73/44/49
f 73/44/50 70/45/50 30/45/50 29/44/50
f 78/24/51 75/44/51 74/52/51 77/24/51
f 77/24/52 74/52/52 73/44/52 76/24/52
f 76/24/53 73/44/53 29/44/53 28/24/53
f 81/23/54 78/24/54 77/24/54 80/53/54
f 80/53/55 77/24/55 76/24/55 79/23/55
f 79/23/56 76/24/56 28/24/56 27/23/56
f 82/41/57 81/23/57 80/53/57 83/54/57
f 83/54/58 80/53/58 79/23/58 84/41/58
f 84/41/59 79/23/59 27/23/59 26/41/59
f 51/50/60 82/41/60 83/54/60 50/50/60
f 50/50/61 83/54/61 84/41/61 49/50/61
f 49/50/62 84/41/62 26/41/62 25/50/62
f 25/50/1 26/41/1 4/3/1 2/2/1
f 92/5/2 90/3/2 85/3/2 111/5/2
f 87/1/1 88/2/1 90/3/1 89/4/1
f 122/41/63 121/50/63 132/49/63 131/42/63 130/43/63 129/48/63 128/47/63 127/46/63 126/45/63 125/44/63 124/24/63 123/23/63
f 96/9/4 94/7/4 112/7/4 113/9/4
f 89/4/2 90/3/2 92/5/2 91/6/2
f 35/42/11 36/49/11 24/25/11 22/21/11
f 100/13/6 98/11/6 114/11/6 115/13/6
f 91/6/3 92/5/3 94/7/3 93/8/3
f 34/43/10 35/42/10 22/21/10 20/19/10
f 104/17/8 102/15/8 116/15/8 117/17/8
f 93/8/4 94/7/4 96/9/4 95/10/4
f 33/48/9 34/43/9 20/19/9 18/17/9
f 108/21/10 106/19/10 118/19/10 119/21/10
f 95/10/5 96/9/5 98/11/5 97/12/5
f 32/47/8 33/48/8 18/17/8 16/15/8
f 94/7/3 92/5/3 111/5/3 112/7/3
f 97/12/6 98/11/6 100/13/6 99/14/6
f 31/46/7 32/47/7 16/15/7 14/13/7
f 98/11/5 96/9/5 113/9/5 114/11/5
f 99/14/7 100/13/7 102/15/7 101/16/7
f 30/45/6 31/46/6 14/13/6 12/11/6
f 102/15/7 100/13/7 115/13/7 116/15/7
f 101/16/8 102/15/8 104/17/8 103/18/8
f 29/44/5 30/45/5 12/11/5 10/9/5
f 106/19/9 104/17/9 117/17/9 118/19/9
f 103/18/9 104/17/9 106/19/9 105/20/9
f 28/24/4 29/44/4 10/9/4 8/7/4
f 90/3/1 88/2/1 86/2/1 85/3/1
f 105/20/10 106/19/10 108/21/10 107/22/10
f 110/25/11 108/21/11 119/21/11 120/25/11
f 118/19/64 117/17/64 141/17/64 142/19/64
f 107/22/11 108/21/11 110/25/11 109/26/11
f 36/49/12 25/50/12 2/27/12 24/25/12
f 88/27/12 110/25/12 120/25/12 86/27/12
f 109/26/12 110/25/12 88/27/12 87/28/12
f 87/29/13 89/30/13 91/31/13 93/32/13 95/33/13 97/34/13 99/35/13 101/36/13 103/37/13 105/38/13 107/39/13 109/40/13
f 44/47/65 43/46/65 127/46/65 128/47/65
f 41/44/66 40/24/66 124/24/66 125/44/66
f 48/49/67 47/42/67 131/42/67 132/49/67
f 38/41/68 37/50/68 121/50/68 122/41/68
f 45/48/69 44/47/69 128/47/69 129/48/69
f 42/45/70 41/44/70 125/44/70 126/45/70
f 37/50/71 48/49/71 132/49/71 121/50/71
f 39/23/72 38/41/72 122/41/72 123/23/72
f 46/43/73 45/48/73 129/48/73 130/43/73
f 43/46/74 42/45/74 126/45/74 127/46/74
f 40/24/75 39/23/75 123/23/75 124/24/75
f 141/17/8 140/15/8 152/15/8 153/17/8
f 111/5/64 85/3/64 133/3/64 135/5/64
f 113/9/64 112/7/64 136/7/64 137/9/64
f 115/13/64 114/11/64 138/11/64 139/13/64
f 117/17/64 116/15/64 140/15/64 141/17/64
f 86/27/64 120/25/64 144/25/64 134/27/64
f 119/21/64 118/19/64 142/19/64 143/21/64
f 85/3/64 86/2/64 134/2/64 133/3/64
f 120/25/64 119/21/64 143/21/64 144/25/64
f 112/7/64 111/5/64 135/5/64 136/7/64
f 114/11/64 113/9/64 137/9/64 138/11/64
f 116/15/64 115/13/64 139/13/64 140/15/64
f 145/41/64 146/50/64 156/49/64 155/42/64 154/43/64 153/48/64 152/47/64 151/46/64 150/45/64 149/44/64 148/24/64 147/23/64
f 133/3/1 134/2/1 146/2/1 145/3/1
f 144/25/11 143/21/11 155/21/11 156/25/11
f 137/9/4 136/7/4 148/7/4 149/9/4
f 140/15/7 139/13/7 151/13/7 152/15/7
f 143/21/10 142/19/10 154/19/10 155/21/10
f 136/7/3 135/5/3 147/5/3 148/7/3
f 139/13/6 138/11/6 150/11/6 151/13/6
f 142/19/9 141/17/9 153/17/9 154/19/9
f 135/5/2 133/3/2 145/3/2 147/5/2
f 134/27/12 144/25/12 156/25/12 146/27/12
f 138/11/5 137/9/5 149/9/5 150/11/5
