# Blender 4.5.3 LTS
# www.blender.org
mtllib pipeB.mtl
o Cylinder
v 0.000000 -1.000000 -1.000000
v 0.000000 1.000000 -1.000000
v 0.500000 -1.000000 -0.866025
v 0.500000 1.000000 -0.866025
v 0.866025 -1.000000 -0.500000
v 0.866025 1.000000 -0.500000
v 1.000000 -1.000000 0.000000
v 1.000000 1.000000 0.000000
v 0.866025 -1.000000 0.500000
v 0.866025 1.000000 0.500000
v 0.500000 -1.000000 0.866025
v 0.500000 1.000000 0.866025
v 0.000000 -1.000000 1.000000
v 0.000000 1.000000 1.000000
v -0.500000 -1.000000 0.866025
v -0.500000 1.000000 0.866025
v -0.866025 -1.000000 0.500000
v -0.866025 1.000000 0.500000
v -1.000000 -1.000000 0.000000
v -1.000000 1.000000 0.000000
v -0.866025 -1.000000 -0.500000
v -0.866025 1.000000 -0.500000
v -0.500000 -1.000000 -0.866025
v -0.500000 1.000000 -0.866025
v -0.000000 3.500000 -3.500000
v 0.000000 3.500000 -1.500000
v 0.500000 3.366025 -3.500000
v 0.500000 3.366025 -1.500000
v 0.866025 3.000000 -3.500000
v 0.866025 3.000000 -1.500000
v 1.000000 2.500000 -3.500000
v 1.000000 2.500000 -1.500000
v 0.866025 2.000000 -3.500000
v 0.866025 2.000000 -1.500000
v 0.500000 1.633975 -3.500000
v 0.500000 1.633975 -1.500000
v -0.000000 1.500000 -3.500000
v 0.000000 1.500000 -1.500000
v -0.500000 1.633975 -3.500000
v -0.500000 1.633975 -1.500000
v -0.866025 2.000000 -3.500000
v -0.866025 2.000000 -1.500000
v -1.000000 2.500000 -3.500000
v -1.000000 2.500000 -1.500000
v -0.866025 3.000000 -3.500000
v -0.866025 3.000000 -1.500000
v -0.500000 3.366025 -3.500000
v -0.500000 3.366025 -1.500000
v 0.000000 1.706827 -0.992298
v -0.000000 1.573223 -0.926777
v -0.000000 1.509702 -0.983173
v -0.500000 1.735521 -0.861432
v -0.500000 1.667957 -0.832042
v -0.500000 1.640568 -0.954480
v -0.866025 1.813912 -0.503900
v -0.866025 1.926776 -0.573223
v -0.866025 1.998100 -0.876088
v -1.000000 1.920996 -0.015501
v -1.000000 2.280330 -0.219670
v -1.000000 2.486499 -0.769004
v -0.866025 2.028081 0.472897
v -0.866025 2.633883 0.133883
v -0.866025 2.974897 -0.661919
v -0.500000 2.106472 0.830429
v -0.500000 2.892702 0.392702
v -0.500000 3.332429 -0.583528
v -0.000000 2.135165 0.961295
v 0.000000 2.987437 0.487437
v 0.000000 3.463295 -0.554835
v 0.500000 2.106472 0.830429
v 0.500000 2.892702 0.392702
v 0.500000 3.332430 -0.583528
v 0.866025 2.028081 0.472897
v 0.866025 2.633883 0.133883
v 0.866025 2.974897 -0.661919
v 1.000000 1.920996 -0.015501
v 1.000000 2.280330 -0.219670
v 1.000000 2.486499 -0.769004
v 0.866025 1.813912 -0.503900
v 0.866025 1.926776 -0.573223
v 0.866025 1.998100 -0.876088
v 0.500000 1.640568 -0.954480
v 0.500000 1.667957 -0.832042
v 0.500000 1.735520 -0.861432
vn 0.2588 -0.0000 -0.9659
vn 0.7071 -0.0000 -0.7071
vn 0.9659 -0.0000 -0.2588
vn 0.9659 -0.0000 0.2588
vn 0.7071 -0.0000 0.7071
vn 0.2588 -0.0000 0.9659
vn -0.2588 -0.0000 0.9659
vn -0.7071 -0.0000 0.7071
vn -0.9659 -0.0000 0.2588
vn -0.9659 -0.0000 -0.2588
vn 0.9652 -0.2613 -0.0030
vn -0.7071 -0.0000 -0.7071
vn -0.2588 -0.0000 -0.9659
vn -0.0000 -1.0000 -0.0000
vn 0.2588 0.9659 -0.0000
vn 0.7071 0.7071 -0.0000
vn 0.9659 0.2588 -0.0000
vn 0.9659 -0.2588 -0.0000
vn 0.7071 -0.7071 -0.0000
vn 0.2588 -0.9659 -0.0000
vn -0.2588 -0.9659 -0.0000
vn -0.7071 -0.7071 -0.0000
vn -0.9659 -0.2588 -0.0000
vn -0.9659 0.2588 -0.0000
vn 0.7028 -0.7114 0.0029
vn -0.7071 0.7071 -0.0000
vn -0.2588 0.9659 -0.0000
vn -0.0000 -0.0000 -1.0000
vn 0.9653 0.2610 0.0064
vn 0.7041 0.7097 0.0237
vn 0.2568 0.9658 0.0365
vn -0.2568 0.9658 0.0365
vn -0.7041 0.7097 0.0237
vn -0.9653 0.2610 0.0064
vn -0.9652 -0.2613 -0.0030
vn -0.7028 -0.7114 0.0029
vn -0.2556 -0.9667 0.0148
vn 0.2556 -0.9667 0.0148
vn -0.1437 -0.8822 0.4485
vn 0.2486 0.4133 0.8760
vn -0.2558 0.0082 -0.9667
vn -0.6627 -0.7450 -0.0770
vn -0.6834 -0.4827 -0.5476
vn -0.7030 0.0003 -0.7112
vn -0.9619 -0.2598 -0.0846
vn -0.9631 -0.1348 -0.2328
vn -0.9652 -0.0029 -0.2614
vn -0.9627 0.2506 0.1019
vn -0.9632 0.1319 0.2344
vn -0.9653 0.0057 0.2611
vn -0.6911 0.6614 0.2914
vn -0.6924 0.3516 0.6301
vn -0.7039 0.0209 0.7099
vn -0.2484 0.8821 0.4001
vn -0.2490 0.4709 0.8463
vn -0.2567 0.0320 0.9659
vn 0.2484 0.8821 0.4001
vn 0.2490 0.4709 0.8463
vn 0.2567 0.0320 0.9659
vn 0.6911 0.6614 0.2914
vn 0.6924 0.3516 0.6301
vn 0.7039 0.0209 0.7099
vn 0.9627 0.2506 0.1019
vn 0.9632 0.1319 0.2344
vn 0.9653 0.0057 0.2611
vn 0.9619 -0.2598 -0.0846
vn 0.9631 -0.1348 -0.2328
vn 0.9652 -0.0029 -0.2614
vn 0.6627 -0.7450 -0.0770
vn 0.6834 -0.4827 -0.5476
vn 0.7030 0.0003 -0.7112
vn 0.1437 -0.8822 0.4485
vn -0.2486 0.4133 0.8760
vn 0.2558 0.0082 -0.9667
vt 1.000000 0.500000
vt 1.000000 1.000000
vt 0.916667 1.000000
vt 0.916667 0.500000
vt 0.833333 1.000000
vt 0.833333 0.500000
vt 0.750000 1.000000
vt 0.750000 0.500000
vt 0.666667 1.000000
vt 0.666667 0.500000
vt 0.583333 1.000000
vt 0.583333 0.500000
vt 0.500000 1.000000
vt 0.500000 0.500000
vt 0.416667 1.000000
vt 0.416667 0.500000
vt 0.333333 1.000000
vt 0.333333 0.500000
vt 0.250000 1.000000
vt 0.250000 0.500000
vt 0.166667 1.000000
vt 0.166667 0.500000
vt 0.750000 1.000000
vt 0.708333 1.000000
vt 0.083333 1.000000
vt 0.083333 0.500000
vt 0.000000 1.000000
vt 0.000000 0.500000
vt 0.750000 0.490000
vt 0.870000 0.457846
vt 0.957846 0.370000
vt 0.990000 0.250000
vt 0.957846 0.130000
vt 0.870000 0.042154
vt 0.750000 0.010000
vt 0.630000 0.042154
vt 0.542154 0.130000
vt 0.510000 0.250000
vt 0.542154 0.370000
vt 0.630000 0.457846
vt 0.791667 1.000000
vt 0.875000 1.000000
vt 0.166667 1.000000
vt 0.125000 1.000000
vt 0.208333 1.000000
vt 0.291667 1.000000
vt 0.375000 1.000000
vt 0.625000 1.000000
vt 0.250000 1.000000
vt 0.208333 1.000000
vt 0.250000 1.000000
vt 0.625000 1.000000
s 0
f 1/1/1 2/2/1 4/3/1 3/4/1
f 3/4/2 4/3/2 6/5/2 5/6/2
f 5/6/3 6/5/3 8/7/3 7/8/3
f 7/8/4 8/7/4 10/9/4 9/10/4
f 9/10/5 10/9/5 12/11/5 11/12/5
f 11/12/6 12/11/6 14/13/6 13/14/6
f 13/14/7 14/13/7 16/15/7 15/16/7
f 15/16/8 16/15/8 18/17/8 17/18/8
f 17/18/9 18/17/9 20/19/9 19/20/9
f 19/20/10 20/19/10 22/21/10 21/22/10
f 34/9/11 32/7/11 78/23/11 81/24/11
f 21/22/12 22/21/12 24/25/12 23/26/12
f 23/26/13 24/25/13 2/27/13 1/28/13
f 1/29/14 3/30/14 5/31/14 7/32/14 9/33/14 11/34/14 13/35/14 15/36/14 17/37/14 19/38/14 21/39/14 23/40/14
f 25/1/15 26/2/15 28/3/15 27/4/15
f 27/4/16 28/3/16 30/5/16 29/6/16
f 29/6/17 30/5/17 32/7/17 31/8/17
f 31/8/18 32/7/18 34/9/18 33/10/18
f 33/10/19 34/9/19 36/11/19 35/12/19
f 35/12/20 36/11/20 38/13/20 37/14/20
f 37/14/21 38/13/21 40/15/21 39/16/21
f 39/16/22 40/15/22 42/17/22 41/18/22
f 41/18/23 42/17/23 44/19/23 43/20/23
f 43/20/24 44/19/24 46/21/24 45/22/24
f 36/11/25 34/9/25 81/24/25 82/9/25
f 45/22/26 46/21/26 48/25/26 47/26/26
f 47/26/27 48/25/27 26/27/27 25/28/27
f 25/29/28 27/30/28 29/31/28 31/32/28 33/33/28 35/34/28 37/35/28 39/36/28 41/37/28 43/38/28 45/39/28 47/40/28
f 32/7/29 30/5/29 75/41/29 78/23/29
f 30/5/30 28/3/30 72/5/30 75/41/30
f 28/3/31 26/2/31 69/42/31 72/5/31
f 26/27/32 48/25/32 66/43/32 69/44/32
f 48/25/33 46/21/33 63/45/33 66/43/33
f 46/21/34 44/19/34 60/19/34 63/45/34
f 44/19/35 42/17/35 57/46/35 60/19/35
f 42/17/36 40/15/36 54/17/36 57/46/36
f 40/15/37 38/13/37 51/47/37 54/17/37
f 38/13/38 36/11/38 82/9/38 51/48/38
f 54/17/39 51/47/39 50/49/39 53/19/39
f 53/19/40 50/49/40 49/44/40 52/21/40
f 52/21/41 49/44/41 2/27/41 24/25/41
f 57/46/42 54/17/42 53/19/42 56/19/42
f 56/19/43 53/19/43 52/21/43 55/50/43
f 55/50/44 52/21/44 24/25/44 22/21/44
f 60/19/45 57/46/45 56/19/45 59/19/45
f 59/19/46 56/19/46 55/50/46 58/19/46
f 58/19/47 55/50/47 22/21/47 20/19/47
f 63/45/48 60/19/48 59/19/48 62/51/48
f 62/51/49 59/19/49 58/19/49 61/46/49
f 61/46/50 58/19/50 20/19/50 18/17/50
f 66/43/51 63/45/51 62/51/51 65/51/51
f 65/51/52 62/51/52 61/46/52 64/17/52
f 64/17/53 61/46/53 18/17/53 16/15/53
f 69/44/54 66/43/54 65/51/54 68/19/54
f 68/19/55 65/51/55 64/17/55 67/47/55
f 67/47/56 64/17/56 16/15/56 14/13/56
f 72/5/57 69/42/57 68/7/57 71/7/57
f 71/7/58 68/7/58 67/52/58 70/9/58
f 70/9/59 67/52/59 14/13/59 12/11/59
f 75/41/60 72/5/60 71/7/60 74/23/60
f 74/23/61 71/7/61 70/9/61 73/24/61
f 73/24/62 70/9/62 12/11/62 10/9/62
f 78/23/63 75/41/63 74/23/63 77/23/63
f 77/23/64 74/23/64 73/24/64 76/7/64
f 76/7/65 73/24/65 10/9/65 8/7/65
f 81/24/66 78/23/66 77/23/66 80/23/66
f 80/23/67 77/23/67 76/7/67 79/41/67
f 79/41/68 76/7/68 8/7/68 6/5/68
f 82/9/69 81/24/69 80/23/69 83/7/69
f 83/7/70 80/23/70 79/41/70 84/5/70
f 84/5/71 79/41/71 6/5/71 4/3/71
f 51/48/72 82/9/72 83/7/72 50/23/72
f 50/23/73 83/7/73 84/5/73 49/42/73
f 49/42/74 84/5/74 4/3/74 2/2/74
