{
	"asset":{
		"generator":"Khronos glTF Blender I/O v4.5.48",
		"version":"2.0"
	},
	"scene":0,
	"scenes":[
		{
			"name":"Scene",
			"nodes":[
				0
			]
		}
	],
	"nodes":[
		{
			"mesh":0,
			"name":"Cube"
		}
	],
	"meshes":[
		{
			"name":"Cube.001",
			"primitives":[
				{
					"attributes":{
						"POSITION":0,
						"NORMAL":1,
						"TEXCOORD_0":2,
						"TANGENT":3
					},
					"indices":4
				}
			]
		}
	],
	"accessors":[
		{
			"bufferView":0,
			"componentType":5126,
			"count":177,
			"max":[
				1.100000023841858,
				2.0999999046325684,
				1.100000023841858
			],
			"min":[
				-1.100000023841858,
				-2.2351741790771484e-08,
				-1.100000023841858
			],
			"type":"VEC3"
		},
		{
			"bufferView":1,
			"componentType":5126,
			"count":177,
			"type":"VEC3"
		},
		{
			"bufferView":2,
			"componentType":5126,
			"count":177,
			"type":"VEC2"
		},
		{
			"bufferView":3,
			"componentType":5126,
			"count":177,
			"type":"VEC4"
		},
		{
			"bufferView":4,
			"componentType":5123,
			"count":276,
			"type":"SCALAR"
		}
	],
	"bufferViews":[
		{
			"buffer":0,
			"byteLength":2124,
			"byteOffset":0,
			"target":34962
		},
		{
			"buffer":0,
			"byteLength":2124,
			"byteOffset":2124,
			"target":34962
		},
		{
			"buffer":0,
			"byteLength":1416,
			"byteOffset":4248,
			"target":34962
		},
		{
			"buffer":0,
			"byteLength":2832,
			"byteOffset":5664,
			"target":34962
		},
		{
			"buffer":0,
			"byteLength":552,
			"byteOffset":8496,
			"target":34963
		}
	],
	"buffers":[
		{
			"byteLength":9048,
			"uri":"exposed%20crate-440dca6e00b4b57e8e23ea3002d1bacb.bin"
		}
	]
}
