{
	"asset":{
		"generator":"Khronos glTF Blender I/O v4.5.48",
		"version":"2.0"
	},
	"scene":0,
	"scenes":[
		{
			"name":"Scene",
			"nodes":[
				0,
				1
			]
		}
	],
	"nodes":[
		{
			"mesh":0,
			"name":"Plane",
			"translation":[
				-4,
				-3,
				0
			]
		},
		{
			"mesh":1,
			"name":"Cube"
		}
	],
	"meshes":[
		{
			"name":"Plane",
			"primitives":[
				{
					"attributes":{
						"POSITION":0,
						"NORMAL":1,
						"TEXCOORD_0":2,
						"TANGENT":3
					},
					"indices":4
				}
			]
		},
		{
			"name":"Cube.002",
			"primitives":[
				{
					"attributes":{
						"POSITION":5,
						"NORMAL":6,
						"TEXCOORD_0":7
					},
					"indices":8
				}
			]
		}
	],
	"accessors":[
		{
			"bufferView":0,
			"componentType":5126,
			"count":32,
			"max":[
				1.5,
				3.9990029335021973,
				1
			],
			"min":[
				-1.5,
				3,
				-1
			],
			"type":"VEC3"
		},
		{
			"bufferView":1,
			"componentType":5126,
			"count":32,
			"type":"VEC3"
		},
		{
			"bufferView":2,
			"componentType":5126,
			"count":32,
			"type":"VEC2"
		},
		{
			"bufferView":3,
			"componentType":5126,
			"count":32,
			"type":"VEC4"
		},
		{
			"bufferView":4,
			"componentType":5123,
			"count":48,
			"type":"SCALAR"
		},
		{
			"bufferView":5,
			"componentType":5126,
			"count":50,
			"max":[
				1.4015476703643799,
				1.507522463798523,
				0.9980859756469727
			],
			"min":[
				-1.3984522819519043,
				0.007522508502006531,
				-1.0019140243530273
			],
			"type":"VEC3"
		},
		{
			"bufferView":6,
			"componentType":5126,
			"count":50,
			"type":"VEC3"
		},
		{
			"bufferView":7,
			"componentType":5126,
			"count":50,
			"type":"VEC2"
		},
		{
			"bufferView":8,
			"componentType":5123,
			"count":84,
			"type":"SCALAR"
		}
	],
	"bufferViews":[
		{
			"buffer":0,
			"byteLength":384,
			"byteOffset":0,
			"target":34962
		},
		{
			"buffer":0,
			"byteLength":384,
			"byteOffset":384,
			"target":34962
		},
		{
			"buffer":0,
			"byteLength":256,
			"byteOffset":768,
			"target":34962
		},
		{
			"buffer":0,
			"byteLength":512,
			"byteOffset":1024,
			"target":34962
		},
		{
			"buffer":0,
			"byteLength":96,
			"byteOffset":1536,
			"target":34963
		},
		{
			"buffer":0,
			"byteLength":600,
			"byteOffset":1632,
			"target":34962
		},
		{
			"buffer":0,
			"byteLength":600,
			"byteOffset":2232,
			"target":34962
		},
		{
			"buffer":0,
			"byteLength":400,
			"byteOffset":2832,
			"target":34962
		},
		{
			"buffer":0,
			"byteLength":168,
			"byteOffset":3232,
			"target":34963
		}
	],
	"buffers":[
		{
			"byteLength":3400,
			"uri":"kitchen%20furniture-eb2f32e6705173aeb22077de1e501e37.bin"
		}
	]
}
