{
	"asset":{
		"generator":"Khronos glTF Blender I/O v4.5.48",
		"version":"2.0"
	},
	"scene":0,
	"scenes":[
		{
			"name":"Scene",
			"nodes":[
				0
			]
		}
	],
	"nodes":[
		{
			"mesh":0,
			"name":"Cylinder"
		}
	],
	"meshes":[
		{
			"name":"Cylinder",
			"primitives":[
				{
					"attributes":{
						"POSITION":0,
						"NORMAL":1,
						"TEXCOORD_0":2
					},
					"indices":3
				}
			]
		}
	],
	"accessors":[
		{
			"bufferView":0,
			"componentType":5126,
			"count":506,
			"max":[
				1.000000238418579,
				5,
				5
			],
			"min":[
				-1.000000238418579,
				-1,
				-1
			],
			"type":"VEC3"
		},
		{
			"bufferView":1,
			"componentType":5126,
			"count":506,
			"type":"VEC3"
		},
		{
			"bufferView":2,
			"componentType":5126,
			"count":506,
			"type":"VEC2"
		},
		{
			"bufferView":3,
			"componentType":5123,
			"count":912,
			"type":"SCALAR"
		}
	],
	"bufferViews":[
		{
			"buffer":0,
			"byteLength":6072,
			"byteOffset":0,
			"target":34962
		},
		{
			"buffer":0,
			"byteLength":6072,
			"byteOffset":6072,
			"target":34962
		},
		{
			"buffer":0,
			"byteLength":4048,
			"byteOffset":12144,
			"target":34962
		},
		{
			"buffer":0,
			"byteLength":1824,
			"byteOffset":16192,
			"target":34963
		}
	],
	"buffers":[
		{
			"byteLength":18016,
			"uri":"pipeA-77f91399875cc7f642aaf579dda3df19.bin"
		}
	]
}
