{
	"asset":{
		"generator":"Khronos glTF Blender I/O v4.5.48",
		"version":"2.0"
	},
	"extensionsUsed":[
		"KHR_lights_punctual"
	],
	"extensionsRequired":[
		"KHR_lights_punctual"
	],
	"extensions":{
		"KHR_lights_punctual":{
			"lights":[
				{
					"color":[
						1,
						1,
						1
					],
					"intensity":54351.41306588226,
					"type":"point",
					"name":"Light"
				}
			]
		}
	},
	"scene":0,
	"scenes":[
		{
			"name":"Scene",
			"nodes":[
				0,
				1,
				2,
				3,
				4
			]
		}
	],
	"nodes":[
		{
			"camera":0,
			"name":"Camera",
			"rotation":[
				-0.20997299253940582,
				0.3857799470424652,
				0.09062844514846802,
				0.8937962055206299
			],
			"translation":[
				7.358891487121582,
				4.945772647857666,
				6.925790786743164
			]
		},
		{
			"extensions":{
				"KHR_lights_punctual":{
					"light":0
				}
			},
			"name":"Light",
			"rotation":[
				-0.28416627645492554,
				0.7269423007965088,
				0.34203392267227173,
				0.5232754945755005
			],
			"translation":[
				4.076245307922363,
				5.903861999511719,
				-1.0054539442062378
			]
		},
		{
			"mesh":0,
			"name":"Sphere"
		},
		{
			"mesh":1,
			"name":"Sphere.001",
			"scale":[
				0.699999988079071,
				0.699999988079071,
				0.699999988079071
			],
			"translation":[
				0.20309539139270782,
				0.17999149858951569,
				-1.833316683769226
			]
		},
		{
			"mesh":2,
			"name":"Sphere.002",
			"scale":[
				0.699999988079071,
				0.699999988079071,
				0.699999988079071
			],
			"translation":[
				-0.18786361813545227,
				0.17999149858951569,
				-1.833316683769226
			]
		}
	],
	"cameras":[
		{
			"name":"Camera",
			"perspective":{
				"aspectRatio":1.7777777777777777,
				"yfov":0.39959652046304894,
				"zfar":100,
				"znear":0.10000000149011612
			},
			"type":"perspective"
		}
	],
	"meshes":[
		{
			"name":"Sphere",
			"primitives":[
				{
					"attributes":{
						"POSITION":0,
						"NORMAL":1,
						"TEXCOORD_0":2,
						"TANGENT":3
					},
					"indices":4
				}
			]
		},
		{
			"name":"Sphere.001",
			"primitives":[
				{
					"attributes":{
						"POSITION":5,
						"NORMAL":6,
						"TEXCOORD_0":7,
						"TANGENT":8
					},
					"indices":9
				}
			]
		},
		{
			"name":"Sphere.002",
			"primitives":[
				{
					"attributes":{
						"POSITION":10,
						"NORMAL":11,
						"TEXCOORD_0":12,
						"TANGENT":13
					},
					"indices":9
				}
			]
		}
	],
	"accessors":[
		{
			"bufferView":0,
			"componentType":5126,
			"count":34140,
			"max":[
				0.9839853048324585,
				0.7428299784660339,
				4.328965663909912
			],
			"min":[
				-0.9888647794723511,
				-0.6456950902938843,
				-2.7049007415771484
			],
			"type":"VEC3"
		},
		{
			"bufferView":1,
			"componentType":5126,
			"count":34140,
			"type":"VEC3"
		},
		{
			"bufferView":2,
			"componentType":5126,
			"count":34140,
			"type":"VEC2"
		},
		{
			"bufferView":3,
			"componentType":5126,
			"count":34140,
			"type":"VEC4"
		},
		{
			"bufferView":4,
			"componentType":5123,
			"count":34590,
			"type":"SCALAR"
		},
		{
			"bufferView":5,
			"componentType":5126,
			"count":552,
			"max":[
				0.09999999403953552,
				0.10000000149011612,
				0.09999999403953552
			],
			"min":[
				-0.09999998658895493,
				-0.10000000149011612,
				-0.10000000149011612
			],
			"type":"VEC3"
		},
		{
			"bufferView":6,
			"componentType":5126,
			"count":552,
			"type":"VEC3"
		},
		{
			"bufferView":7,
			"componentType":5126,
			"count":552,
			"type":"VEC2"
		},
		{
			"bufferView":8,
			"componentType":5126,
			"count":552,
			"type":"VEC4"
		},
		{
			"bufferView":9,
			"componentType":5123,
			"count":792,
			"type":"SCALAR"
		},
		{
			"bufferView":10,
			"componentType":5126,
			"count":552,
			"max":[
				0.09999999403953552,
				0.10000000149011612,
				0.09999999403953552
			],
			"min":[
				-0.09999998658895493,
				-0.10000000149011612,
				-0.10000000149011612
			],
			"type":"VEC3"
		},
		{
			"bufferView":11,
			"componentType":5126,
			"count":552,
			"type":"VEC3"
		},
		{
			"bufferView":12,
			"componentType":5126,
			"count":552,
			"type":"VEC2"
		},
		{
			"bufferView":13,
			"componentType":5126,
			"count":552,
			"type":"VEC4"
		}
	],
	"bufferViews":[
		{
			"buffer":0,
			"byteLength":409680,
			"byteOffset":0,
			"target":34962
		},
		{
			"buffer":0,
			"byteLength":409680,
			"byteOffset":409680,
			"target":34962
		},
		{
			"buffer":0,
			"byteLength":273120,
			"byteOffset":819360,
			"target":34962
		},
		{
			"buffer":0,
			"byteLength":546240,
			"byteOffset":1092480,
			"target":34962
		},
		{
			"buffer":0,
			"byteLength":69180,
			"byteOffset":1638720,
			"target":34963
		},
		{
			"buffer":0,
			"byteLength":6624,
			"byteOffset":1707900,
			"target":34962
		},
		{
			"buffer":0,
			"byteLength":6624,
			"byteOffset":1714524,
			"target":34962
		},
		{
			"buffer":0,
			"byteLength":4416,
			"byteOffset":1721148,
			"target":34962
		},
		{
			"buffer":0,
			"byteLength":8832,
			"byteOffset":1725564,
			"target":34962
		},
		{
			"buffer":0,
			"byteLength":1584,
			"byteOffset":1734396,
			"target":34963
		},
		{
			"buffer":0,
			"byteLength":6624,
			"byteOffset":1735980,
			"target":34962
		},
		{
			"buffer":0,
			"byteLength":6624,
			"byteOffset":1742604,
			"target":34962
		},
		{
			"buffer":0,
			"byteLength":4416,
			"byteOffset":1749228,
			"target":34962
		},
		{
			"buffer":0,
			"byteLength":8832,
			"byteOffset":1753644,
			"target":34962
		}
	],
	"buffers":[
		{
			"byteLength":1762476,
			"uri":"Ratone-e971fd6788edb3c528ebf66a55fec96a.bin"
		}
	]
}
